<?xml version="1.0" encoding="UTF-8" standalone="no"?>
<!-- Created with Inkscape (http://www.inkscape.org/) -->

<svg
   xmlns:dc="http://purl.org/dc/elements/1.1/"
   xmlns:cc="http://creativecommons.org/ns#"
   xmlns:rdf="http://www.w3.org/1999/02/22-rdf-syntax-ns#"
   xmlns:svg="http://www.w3.org/2000/svg"
   xmlns="http://www.w3.org/2000/svg"
   xmlns:sodipodi="http://sodipodi.sourceforge.net/DTD/sodipodi-0.dtd"
   xmlns:inkscape="http://www.inkscape.org/namespaces/inkscape"
   id="svg3362"
   version="1.1"
   inkscape:version="0.91 r13725"
   width="1225"
   height="458.75"
   viewBox="0 0 1225 458.75"
   sodipodi:docname="im2.svg">
  <metadata
     id="metadata3368">
    <rdf:RDF>
      <cc:Work
         rdf:about="">
        <dc:format>image/svg+xml</dc:format>
        <dc:type
           rdf:resource="http://purl.org/dc/dcmitype/StillImage" />
        <dc:title></dc:title>
      </cc:Work>
    </rdf:RDF>
  </metadata>
  <defs
     id="defs3366" />
  <sodipodi:namedview
     pagecolor="#ffffff"
     bordercolor="#666666"
     borderopacity="1"
     objecttolerance="10"
     gridtolerance="10"
     guidetolerance="10"
     inkscape:pageopacity="0"
     inkscape:pageshadow="2"
     inkscape:window-width="1024"
     inkscape:window-height="706"
     id="namedview3364"
     showgrid="false"
     inkscape:zoom="0.3732132"
     inkscape:cx="691.37103"
     inkscape:cy="402.51498"
     inkscape:window-x="-8"
     inkscape:window-y="-8"
     inkscape:window-maximized="1"
     inkscape:current-layer="svg3362"
     inkscape:showpageshadow="true" />
  <path
     style="fill:#800080;fill-rule:evenodd;stroke:#000000;stroke-width:1px;stroke-linecap:butt;stroke-linejoin:miter;stroke-opacity:1"
     d="m 116.10879,-3001.6889 c 0,0 9.92383,-59.543 65.49727,-59.543 55.57344,0 67.48203,58.5506 64.50488,76.4135 -2.97715,17.8629 -28.7791,53.5886 -63.5125,53.5886 -34.7334,0 -67.48203,-17.8629 -66.48965,-70.4591 z"
     id="path3376"
     inkscape:connector-curvature="0" />
  <path
     inkscape:connector-curvature="0"
     id="path3378"
     d="m 356.26543,-3080.0871 c 0,0 9.92383,-59.543 65.49727,-59.543 55.57344,0 67.48203,58.5506 64.50488,76.4135 -2.97715,17.8629 -28.7791,53.5886 -63.5125,53.5886 -34.7334,0 -67.48203,-17.8629 -66.48965,-70.4591 z"
     style="fill:#800080;fill-rule:evenodd;stroke:#000000;stroke-width:1px;stroke-linecap:butt;stroke-linejoin:miter;stroke-opacity:1" />
  <path
     style="fill:#800080;fill-rule:evenodd;stroke:#000000;stroke-width:1px;stroke-linecap:butt;stroke-linejoin:miter;stroke-opacity:1"
     d="m 474.35899,-2870.6943 c 0,0 9.92383,-59.543 65.49727,-59.543 55.57344,0 67.48203,58.5506 64.50488,76.4135 -2.97715,17.8629 -28.7791,53.5886 -63.5125,53.5886 -34.7334,0 -67.48203,-17.8629 -66.48965,-70.4591 z"
     id="path3380"
     inkscape:connector-curvature="0" />
  <path
     inkscape:connector-curvature="0"
     id="path3382"
     d="m 279.85195,-2677.1796 c 0,0 9.92383,-59.543 65.49727,-59.543 55.57344,0 67.48203,58.5506 64.50488,76.4135 -2.97715,17.8629 -28.7791,53.5886 -63.5125,53.5886 -34.7334,0 -67.48203,-17.8629 -66.48965,-70.4591 z"
     style="fill:#800080;fill-rule:evenodd;stroke:#000000;stroke-width:1px;stroke-linecap:butt;stroke-linejoin:miter;stroke-opacity:1" />
  <path
     style="fill:#ff00ff;fill-rule:evenodd;stroke:#000000;stroke-width:1px;stroke-linecap:butt;stroke-linejoin:miter;stroke-opacity:1"
     d="m 164.73555,-2934.2069 -28.7791,91.2992 -76.41348,130.9945 2.977149,1.9848 75.421091,-130.9945 154.81173,134.964 0.99238,-3.9695 -158.78125,-137.9412 26.79433,-89.3145 z"
     id="path3384"
     inkscape:connector-curvature="0" />
  <path
     style="fill:#ff00ff;fill-rule:evenodd;stroke:#000000;stroke-width:1px;stroke-linecap:butt;stroke-linejoin:miter;stroke-opacity:1"
     d="m 241.14903,-3011.6128 117.10117,-43.6648 0,4.9619 -114.12402,42.6725 z"
     id="path3386"
     inkscape:connector-curvature="0" />
  <path
     style="fill:#ff00ff;fill-rule:evenodd;stroke:#000000;stroke-width:1px;stroke-linecap:butt;stroke-linejoin:miter;stroke-opacity:1"
     d="m 389.01407,-2715.8827 103.20782,-101.223 3.96953,1.9847 -104.2002,103.2078 z"
     id="path3388"
     inkscape:connector-curvature="0" />
  <path
     style="fill:#ff00ff;fill-rule:evenodd;stroke:#000000;stroke-width:1px;stroke-linecap:butt;stroke-linejoin:miter;stroke-opacity:1"
     d="m 148.85743,-3050.3157 -37.71055,-72.444 1.98476,-1.9847 z"
     id="path3390"
     inkscape:connector-curvature="0" />
  <path
     inkscape:connector-curvature="0"
     id="path3392"
     d="m 148.85743,-3050.3157 -37.71055,-72.444 1.98476,-1.9847 z"
     style="fill:#ff00ff;fill-rule:evenodd;stroke:#000000;stroke-width:1px;stroke-linecap:butt;stroke-linejoin:miter;stroke-opacity:1" />
  <path
     inkscape:connector-curvature="0"
     id="path3394"
     d="m 685.73653,-2706.9511 c 0,0 9.92383,-59.543 65.49727,-59.543 55.57344,0 67.48203,58.5506 64.50488,76.4135 -2.97715,17.8629 -28.7791,53.5886 -63.5125,53.5886 -34.7334,0 -67.48203,-17.8629 -66.48965,-70.4591 z"
     style="fill:#800080;fill-rule:evenodd;stroke:#000000;stroke-width:1px;stroke-linecap:butt;stroke-linejoin:miter;stroke-opacity:1" />
  <path
     style="fill:#800080;fill-rule:evenodd;stroke:#000000;stroke-width:1px;stroke-linecap:butt;stroke-linejoin:miter;stroke-opacity:1"
     d="m 964.59611,-2830.0066 c 0,0 9.92383,-59.543 65.49729,-59.543 55.5734,0 67.482,58.5506 64.5049,76.4135 -2.9772,17.8629 -28.7791,53.5886 -63.5125,53.5886 -34.73344,0 -67.48207,-17.8629 -66.48969,-70.4591 z"
     id="path3396"
     inkscape:connector-curvature="0" />
  <path
     inkscape:connector-curvature="0"
     id="path3398"
     d="m 1080.7049,-3017.567 c 0,0 9.9238,-59.543 65.4973,-59.543 55.5734,0 67.482,58.5506 64.5049,76.4135 -2.9772,17.8629 -28.7791,53.5886 -63.5125,53.5886 -34.7334,0 -67.4821,-17.8629 -66.4897,-70.4591 z"
     style="fill:#800080;fill-rule:evenodd;stroke:#000000;stroke-width:1px;stroke-linecap:butt;stroke-linejoin:miter;stroke-opacity:1" />
  <path
     style="fill:#800080;fill-rule:evenodd;stroke:#000000;stroke-width:1px;stroke-linecap:butt;stroke-linejoin:miter;stroke-opacity:1"
     d="m 1367.5035,-3094.9729 c 0,0 9.9238,-59.543 65.4973,-59.543 55.5734,0 67.482,58.5506 64.5049,76.4135 -2.9772,17.8629 -28.7791,53.5886 -63.5125,53.5886 -34.7334,0 -67.4821,-17.8629 -66.4897,-70.4591 z"
     id="path3400"
     inkscape:connector-curvature="0" />
  <path
     style="fill:#ff00ff;fill-rule:evenodd;stroke:#000000;stroke-width:1px;stroke-linecap:butt;stroke-linejoin:miter;stroke-opacity:1"
     d="m 1365.5188,-3079.0948 -159.7737,53.5887 3.9696,7.939 156.7965,-56.5658 z"
     id="path3402"
     inkscape:connector-curvature="0" />
  <path
     style="fill:#ff00ff;fill-rule:evenodd;stroke:#000000;stroke-width:1px;stroke-linecap:butt;stroke-linejoin:miter;stroke-opacity:1"
     d="m 1182.9203,-2963.9784 82.3678,110.1545 -170.6898,22.8248 -2.9772,-5.9543 162.7508,-20.84 z"
     id="path3404"
     inkscape:connector-curvature="0" />
  <path
     style="fill:#00ffff;fill-rule:evenodd;stroke:#000000;stroke-width:1px;stroke-linecap:butt;stroke-linejoin:miter;stroke-opacity:1"
     d="m 1086.6592,-3039.3995 -118.09355,-63.5125 -163.74317,176.6441 -206.41563,51.604 5.9543,4.9619 c 0,0 196.4918,-47.6344 200.46133,-50.6116 3.96953,-2.9771 166.72032,-177.6365 166.72032,-177.6365 l 117.1012,66.4897 z"
     id="path3406"
     inkscape:connector-curvature="0" />
  <text
     xml:space="preserve"
     style="font-style:normal;font-variant:normal;font-weight:normal;font-stretch:normal;font-size:36.62749863px;line-height:80.00000119%;font-family:sans-serif;-inkscape-font-specification:'sans-serif, Normal';text-align:start;letter-spacing:0px;word-spacing:0px;writing-mode:lr-tb;text-anchor:start;fill:#ffffff;fill-opacity:1;stroke:none;stroke-width:1px;stroke-linecap:butt;stroke-linejoin:miter;stroke-opacity:1"
     x="128.12921"
     y="-3265.7473"
     id="text3408"
     sodipodi:linespacing="80.000001%"
     transform="scale(1.0920693,0.91569281)"><tspan
       sodipodi:role="line"
       id="tspan3412"
       x="128.12921"
       y="-3265.7473">text</tspan></text>
  <path
     style="fill:#800080;fill-rule:evenodd;stroke:#000000;stroke-width:1px;stroke-linecap:butt;stroke-linejoin:miter;stroke-opacity:1"
     d="m 95.735533,182.27215 c 0,0 9.923827,-59.543 65.497267,-59.543 55.57344,0 67.48203,58.5506 64.50488,76.4135 -2.97715,17.8629 -28.7791,53.5886 -63.5125,53.5886 -34.7334,0 -67.482027,-17.8629 -66.489647,-70.4591 z"
     id="path3376-3"
     inkscape:connector-curvature="0" />
  <path
     inkscape:connector-curvature="0"
     id="path3378-7"
     d="m 298.3801,87.797349 c 0,0 9.92383,-59.543 65.49727,-59.543 55.57344,0 67.48203,58.5506 64.50488,76.413501 -2.97715,17.8629 -28.7791,53.5886 -63.5125,53.5886 -34.7334,0 -67.48203,-17.8629 -66.48965,-70.459101 z"
     style="fill:#800080;fill-rule:evenodd;stroke:#000000;stroke-width:1px;stroke-linecap:butt;stroke-linejoin:miter;stroke-opacity:1" />
  <path
     style="fill:#800080;fill-rule:evenodd;stroke:#000000;stroke-width:1px;stroke-linecap:butt;stroke-linejoin:miter;stroke-opacity:1"
     d="m 269.10481,353.45825 c 0,0 9.92383,-59.543 65.49727,-59.543 55.57344,0 67.48203,58.5506 64.50488,76.4135 -2.97715,17.8629 -28.7791,53.5886 -63.5125,53.5886 -34.7334,0 -67.48203,-17.8629 -66.48965,-70.4591 z"
     id="path3380-2"
     inkscape:connector-curvature="0" />
  <path
     inkscape:connector-curvature="0"
     id="path3382-7"
     d="m 120.14814,380.84807 c 0,0 9.92383,-59.543 65.49727,-59.543 55.57344,0 67.48203,58.5506 64.50488,76.4135 -2.97715,17.8629 -28.7791,53.5886 -63.5125,53.5886 -34.7334,0 -67.48203,-17.8629 -66.48965,-70.4591 z"
     style="fill:#800080;fill-rule:evenodd;stroke:#000000;stroke-width:1px;stroke-linecap:butt;stroke-linejoin:miter;stroke-opacity:1" />
  <path
     style="fill:#ff00ff;fill-rule:evenodd;stroke:#000000;stroke-width:1px;stroke-linecap:butt;stroke-linejoin:miter;stroke-opacity:1"
     d="m 130.96512,193.48604 -28.7791,91.2992 -76.413476,130.9945 2.97715,1.9848 75.421086,-130.9945 154.81173,134.964 0.99238,-3.9695 -158.78125,-137.9412 26.79433,-89.3145 z"
     id="path3384-8"
     inkscape:connector-curvature="0" />
  <path
     style="fill:#ff00ff;fill-rule:evenodd;stroke:#000000;stroke-width:1px;stroke-linecap:butt;stroke-linejoin:miter;stroke-opacity:1"
     d="m 196.66087,148.23335 117.10117,-43.6648 0,4.9619 -114.12402,42.6725 z"
     id="path3386-6"
     inkscape:connector-curvature="0" />
  <path
     style="fill:#ff00ff;fill-rule:evenodd;stroke:#000000;stroke-width:1px;stroke-linecap:butt;stroke-linejoin:miter;stroke-opacity:1"
     d="m 234.66913,419.84854 103.20782,-101.223 3.96953,1.9847 -104.2002,103.2078 z"
     id="path3388-1"
     inkscape:connector-curvature="0" />
  <path
     style="fill:#ff00ff;fill-rule:evenodd;stroke:#000000;stroke-width:1px;stroke-linecap:butt;stroke-linejoin:miter;stroke-opacity:1"
     d="m 680.44751,114.88932 -37.71055,-72.444005 1.98476,-1.9847 z"
     id="path3390-8"
     inkscape:connector-curvature="0" />
  <path
     inkscape:connector-curvature="0"
     id="path3392-2"
     d="m 139.20191,149.72195 -37.71055,-72.443997 1.98476,-1.9847 z"
     style="fill:#ff00ff;fill-rule:evenodd;stroke:#000000;stroke-width:1px;stroke-linecap:butt;stroke-linejoin:miter;stroke-opacity:1" />
  <path
     inkscape:connector-curvature="0"
     id="path3394-9"
     d="m 673.40157,75.094902 c 0,0 9.92383,-59.543 65.49727,-59.543 55.57344,0 67.48203,58.5506 64.50488,76.4135 -2.97715,17.862898 -28.7791,53.588598 -63.5125,53.588598 -34.7334,0 -67.48203,-17.8629 -66.48965,-70.459098 z"
     style="fill:#800080;fill-rule:evenodd;stroke:#000000;stroke-width:1px;stroke-linecap:butt;stroke-linejoin:miter;stroke-opacity:1" />
  <path
     style="fill:#800080;fill-rule:evenodd;stroke:#000000;stroke-width:1px;stroke-linecap:butt;stroke-linejoin:miter;stroke-opacity:1"
     d="m 662.88232,378.06935 c 0,0 9.92383,-59.543 65.49729,-59.543 55.57341,0 67.48201,58.5506 64.50491,76.4135 -2.9772,17.8629 -28.7791,53.5886 -63.51251,53.5886 -34.73344,0 -67.48207,-17.8629 -66.48969,-70.4591 z"
     id="path3396-6"
     inkscape:connector-curvature="0" />
  <path
     inkscape:connector-curvature="0"
     id="path3398-2"
     d="m 848.65639,262.85366 c 0,0 9.9238,-59.543 65.4973,-59.543 55.5734,0 67.482,58.5506 64.5049,76.4135 -2.9772,17.8629 -28.7791,53.5886 -63.5125,53.5886 -34.7334,0 -67.4821,-17.8629 -66.4897,-70.4591 z"
     style="fill:#800080;fill-rule:evenodd;stroke:#000000;stroke-width:1px;stroke-linecap:butt;stroke-linejoin:miter;stroke-opacity:1" />
  <path
     style="fill:#800080;fill-rule:evenodd;stroke:#000000;stroke-width:1px;stroke-linecap:butt;stroke-linejoin:miter;stroke-opacity:1"
     d="m 1095.2635,147.93569 c 0,0 9.9238,-59.542999 65.4973,-59.542999 55.5734,0 67.482,58.550599 64.5049,76.413499 -2.9772,17.8629 -28.7791,53.5886 -63.5125,53.5886 -34.7334,0 -67.4821,-17.8629 -66.4897,-70.4591 z"
     id="path3400-8"
     inkscape:connector-curvature="0" />
  <path
     style="fill:#ff00ff;fill-rule:evenodd;stroke:#000000;stroke-width:1px;stroke-linecap:butt;stroke-linejoin:miter;stroke-opacity:1"
     d="m 1122.7526,179.89039 -159.77374,53.5887 3.9696,7.939 156.79654,-56.5658 z"
     id="path3402-6"
     inkscape:connector-curvature="0" />
  <path
     style="fill:#ff00ff;fill-rule:evenodd;stroke:#000000;stroke-width:1px;stroke-linecap:butt;stroke-linejoin:miter;stroke-opacity:1"
     d="m 873.16822,270.89189 82.3678,110.1545 -170.6898,22.8248 -2.9772,-5.9543 162.7508,-20.84 z"
     id="path3404-7"
     inkscape:connector-curvature="0" />
  <path
     style="fill:#00ffff;fill-rule:evenodd;stroke:#000000;stroke-width:1px;stroke-linecap:butt;stroke-linejoin:miter;stroke-opacity:1"
     d="M 873.36673,200.82966 755.27317,137.31716 591.53,313.96126 l -206.41563,51.604 5.9543,4.9619 c 0,0 196.4918,-47.6344 200.46133,-50.6116 3.96953,-2.9771 166.72032,-177.6365 166.72032,-177.6365 l 117.10121,66.4897 z"
     id="path3406-8"
     inkscape:connector-curvature="0" />
  <text
     xml:space="preserve"
     style="font-style:normal;font-variant:normal;font-weight:normal;font-stretch:normal;font-size:36.62749863px;line-height:80.00000119%;font-family:sans-serif;-inkscape-font-specification:'sans-serif, Normal';text-align:start;letter-spacing:0px;word-spacing:0px;writing-mode:lr-tb;text-anchor:start;fill:#ffffff;fill-opacity:1;stroke:none;stroke-width:1px;stroke-linecap:butt;stroke-linejoin:miter;stroke-opacity:1"
     x="109.47357"
     y="211.3588"
     id="text3408-8"
     sodipodi:linespacing="80.000001%"
     transform="scale(1.0920693,0.91569281)"><tspan
       sodipodi:role="line"
       id="tspan3412-2"
       x="109.47357"
       y="211.3588">text</tspan></text>
</svg>
