<?xml version="1.0" encoding="UTF-8" standalone="no"?>
<!-- Created with Inkscape (http://www.inkscape.org/) -->

<svg
   xmlns:dc="http://purl.org/dc/elements/1.1/"
   xmlns:cc="http://creativecommons.org/ns#"
   xmlns:rdf="http://www.w3.org/1999/02/22-rdf-syntax-ns#"
   xmlns:svg="http://www.w3.org/2000/svg"
   xmlns="http://www.w3.org/2000/svg"
   xmlns:sodipodi="http://sodipodi.sourceforge.net/DTD/sodipodi-0.dtd"
   xmlns:inkscape="http://www.inkscape.org/namespaces/inkscape"
   id="svg3362"
   version="1.1"
   inkscape:version="0.91 r13725"
   width="1225"
   height="458.75"
   viewBox="0 0 1225 458.75"
   sodipodi:docname="im3.svg">
  <metadata
     id="metadata3368">
    <rdf:RDF>
      <cc:Work
         rdf:about="">
        <dc:format>image/svg+xml</dc:format>
        <dc:type
           rdf:resource="http://purl.org/dc/dcmitype/StillImage" />
        <dc:title></dc:title>
      </cc:Work>
    </rdf:RDF>
  </metadata>
  <defs
     id="defs3366" />
  <sodipodi:namedview
     pagecolor="#ffffff"
     bordercolor="#666666"
     borderopacity="1"
     objecttolerance="10"
     gridtolerance="10"
     guidetolerance="10"
     inkscape:pageopacity="0"
     inkscape:pageshadow="2"
     inkscape:window-width="1024"
     inkscape:window-height="706"
     id="namedview3364"
     showgrid="false"
     inkscape:zoom="0.56286219"
     inkscape:cx="691.37103"
     inkscape:cy="402.51498"
     inkscape:window-x="-8"
     inkscape:window-y="-8"
     inkscape:window-maximized="1"
     inkscape:current-layer="svg3362"
     inkscape:showpageshadow="true" />
  <path
     style="fill:#800080;fill-rule:evenodd;stroke:#000000;stroke-width:1px;stroke-linecap:butt;stroke-linejoin:miter;stroke-opacity:1"
     d="m 116.10879,-3001.6889 c 0,0 9.92383,-59.543 65.49727,-59.543 55.57344,0 67.48203,58.5506 64.50488,76.4135 -2.97715,17.8629 -28.7791,53.5886 -63.5125,53.5886 -34.7334,0 -67.48203,-17.8629 -66.48965,-70.4591 z"
     id="path3376"
     inkscape:connector-curvature="0" />
  <path
     inkscape:connector-curvature="0"
     id="path3378"
     d="m 356.26543,-3080.0871 c 0,0 9.92383,-59.543 65.49727,-59.543 55.57344,0 67.48203,58.5506 64.50488,76.4135 -2.97715,17.8629 -28.7791,53.5886 -63.5125,53.5886 -34.7334,0 -67.48203,-17.8629 -66.48965,-70.4591 z"
     style="fill:#800080;fill-rule:evenodd;stroke:#000000;stroke-width:1px;stroke-linecap:butt;stroke-linejoin:miter;stroke-opacity:1" />
  <path
     style="fill:#800080;fill-rule:evenodd;stroke:#000000;stroke-width:1px;stroke-linecap:butt;stroke-linejoin:miter;stroke-opacity:1"
     d="m 474.35899,-2870.6943 c 0,0 9.92383,-59.543 65.49727,-59.543 55.57344,0 67.48203,58.5506 64.50488,76.4135 -2.97715,17.8629 -28.7791,53.5886 -63.5125,53.5886 -34.7334,0 -67.48203,-17.8629 -66.48965,-70.4591 z"
     id="path3380"
     inkscape:connector-curvature="0" />
  <path
     inkscape:connector-curvature="0"
     id="path3382"
     d="m 279.85195,-2677.1796 c 0,0 9.92383,-59.543 65.49727,-59.543 55.57344,0 67.48203,58.5506 64.50488,76.4135 -2.97715,17.8629 -28.7791,53.5886 -63.5125,53.5886 -34.7334,0 -67.48203,-17.8629 -66.48965,-70.4591 z"
     style="fill:#800080;fill-rule:evenodd;stroke:#000000;stroke-width:1px;stroke-linecap:butt;stroke-linejoin:miter;stroke-opacity:1" />
  <path
     style="fill:#ff00ff;fill-rule:evenodd;stroke:#000000;stroke-width:1px;stroke-linecap:butt;stroke-linejoin:miter;stroke-opacity:1"
     d="m 164.73555,-2934.2069 -28.7791,91.2992 -76.41348,130.9945 2.977149,1.9848 75.421091,-130.9945 154.81173,134.964 0.99238,-3.9695 -158.78125,-137.9412 26.79433,-89.3145 z"
     id="path3384"
     inkscape:connector-curvature="0" />
  <path
     style="fill:#ff00ff;fill-rule:evenodd;stroke:#000000;stroke-width:1px;stroke-linecap:butt;stroke-linejoin:miter;stroke-opacity:1"
     d="m 241.14903,-3011.6128 117.10117,-43.6648 0,4.9619 -114.12402,42.6725 z"
     id="path3386"
     inkscape:connector-curvature="0" />
  <path
     style="fill:#ff00ff;fill-rule:evenodd;stroke:#000000;stroke-width:1px;stroke-linecap:butt;stroke-linejoin:miter;stroke-opacity:1"
     d="m 389.01407,-2715.8827 103.20782,-101.223 3.96953,1.9847 -104.2002,103.2078 z"
     id="path3388"
     inkscape:connector-curvature="0" />
  <path
     style="fill:#ff00ff;fill-rule:evenodd;stroke:#000000;stroke-width:1px;stroke-linecap:butt;stroke-linejoin:miter;stroke-opacity:1"
     d="m 148.85743,-3050.3157 -37.71055,-72.444 1.98476,-1.9847 z"
     id="path3390"
     inkscape:connector-curvature="0" />
  <path
     inkscape:connector-curvature="0"
     id="path3392"
     d="m 148.85743,-3050.3157 -37.71055,-72.444 1.98476,-1.9847 z"
     style="fill:#ff00ff;fill-rule:evenodd;stroke:#000000;stroke-width:1px;stroke-linecap:butt;stroke-linejoin:miter;stroke-opacity:1" />
  <path
     inkscape:connector-curvature="0"
     id="path3394"
     d="m 685.73653,-2706.9511 c 0,0 9.92383,-59.543 65.49727,-59.543 55.57344,0 67.48203,58.5506 64.50488,76.4135 -2.97715,17.8629 -28.7791,53.5886 -63.5125,53.5886 -34.7334,0 -67.48203,-17.8629 -66.48965,-70.4591 z"
     style="fill:#800080;fill-rule:evenodd;stroke:#000000;stroke-width:1px;stroke-linecap:butt;stroke-linejoin:miter;stroke-opacity:1" />
  <path
     style="fill:#800080;fill-rule:evenodd;stroke:#000000;stroke-width:1px;stroke-linecap:butt;stroke-linejoin:miter;stroke-opacity:1"
     d="m 964.59611,-2830.0066 c 0,0 9.92383,-59.543 65.49729,-59.543 55.5734,0 67.482,58.5506 64.5049,76.4135 -2.9772,17.8629 -28.7791,53.5886 -63.5125,53.5886 -34.73344,0 -67.48207,-17.8629 -66.48969,-70.4591 z"
     id="path3396"
     inkscape:connector-curvature="0" />
  <path
     inkscape:connector-curvature="0"
     id="path3398"
     d="m 1080.7049,-3017.567 c 0,0 9.9238,-59.543 65.4973,-59.543 55.5734,0 67.482,58.5506 64.5049,76.4135 -2.9772,17.8629 -28.7791,53.5886 -63.5125,53.5886 -34.7334,0 -67.4821,-17.8629 -66.4897,-70.4591 z"
     style="fill:#800080;fill-rule:evenodd;stroke:#000000;stroke-width:1px;stroke-linecap:butt;stroke-linejoin:miter;stroke-opacity:1" />
  <path
     style="fill:#800080;fill-rule:evenodd;stroke:#000000;stroke-width:1px;stroke-linecap:butt;stroke-linejoin:miter;stroke-opacity:1"
     d="m 1367.5035,-3094.9729 c 0,0 9.9238,-59.543 65.4973,-59.543 55.5734,0 67.482,58.5506 64.5049,76.4135 -2.9772,17.8629 -28.7791,53.5886 -63.5125,53.5886 -34.7334,0 -67.4821,-17.8629 -66.4897,-70.4591 z"
     id="path3400"
     inkscape:connector-curvature="0" />
  <path
     style="fill:#ff00ff;fill-rule:evenodd;stroke:#000000;stroke-width:1px;stroke-linecap:butt;stroke-linejoin:miter;stroke-opacity:1"
     d="m 1365.5188,-3079.0948 -159.7737,53.5887 3.9696,7.939 156.7965,-56.5658 z"
     id="path3402"
     inkscape:connector-curvature="0" />
  <path
     style="fill:#ff00ff;fill-rule:evenodd;stroke:#000000;stroke-width:1px;stroke-linecap:butt;stroke-linejoin:miter;stroke-opacity:1"
     d="m 1182.9203,-2963.9784 82.3678,110.1545 -170.6898,22.8248 -2.9772,-5.9543 162.7508,-20.84 z"
     id="path3404"
     inkscape:connector-curvature="0" />
  <path
     style="fill:#00ffff;fill-rule:evenodd;stroke:#000000;stroke-width:1px;stroke-linecap:butt;stroke-linejoin:miter;stroke-opacity:1"
     d="m 1086.6592,-3039.3995 -118.09355,-63.5125 -163.74317,176.6441 -206.41563,51.604 5.9543,4.9619 c 0,0 196.4918,-47.6344 200.46133,-50.6116 3.96953,-2.9771 166.72032,-177.6365 166.72032,-177.6365 l 117.1012,66.4897 z"
     id="path3406"
     inkscape:connector-curvature="0" />
  <text
     xml:space="preserve"
     style="font-style:normal;font-variant:normal;font-weight:normal;font-stretch:normal;font-size:36.62749863px;line-height:80.00000119%;font-family:sans-serif;-inkscape-font-specification:'sans-serif, Normal';text-align:start;letter-spacing:0px;word-spacing:0px;writing-mode:lr-tb;text-anchor:start;fill:#ffffff;fill-opacity:1;stroke:none;stroke-width:1px;stroke-linecap:butt;stroke-linejoin:miter;stroke-opacity:1"
     x="128.12921"
     y="-3265.7473"
     id="text3408"
     sodipodi:linespacing="80.000001%"
     transform="scale(1.0920693,0.91569281)"><tspan
       sodipodi:role="line"
       id="tspan3412"
       x="128.12921"
       y="-3265.7473">text</tspan></text>
  <path
     style="fill:#aa87de"
     id="path3484"
     sodipodi:type="arc"
     sodipodi:cx="281.34055"
     sodipodi:cy="91.667587"
     sodipodi:rx="53.050079"
     sodipodi:ry="53.050079"
     sodipodi:start="4.7481159"
     sodipodi:end="4.5468794"
     sodipodi:open="true"
     d="m 283.23546,38.651361 a 53.050079,53.050079 0 0 1 51.14952,52.242667 53.050079,53.050079 0 0 1 -49.60436,53.711982 53.050079,53.050079 0 0 1 -56.13853,-46.840538 53.050079,53.050079 0 0 1 43.95819,-58.42301" />
  <path
     d="m 171.60205,172.62304 a 53.050079,53.050079 0 0 1 51.14953,52.24267 53.050079,53.050079 0 0 1 -49.60437,53.71198 53.050079,53.050079 0 0 1 -56.13852,-46.84054 53.050079,53.050079 0 0 1 43.95818,-58.42301"
     sodipodi:open="true"
     sodipodi:end="4.5468794"
     sodipodi:start="4.7481159"
     sodipodi:ry="53.050079"
     sodipodi:rx="53.050079"
     sodipodi:cy="225.63927"
     sodipodi:cx="169.70714"
     sodipodi:type="arc"
     id="path3486"
     style="fill:#aa87de" />
  <path
     style="fill:#aa87de"
     id="path3488"
     sodipodi:type="arc"
     sodipodi:cx="326.89093"
     sodipodi:cy="343.53436"
     sodipodi:rx="53.050079"
     sodipodi:ry="53.050079"
     sodipodi:start="4.7481159"
     sodipodi:end="4.5468794"
     sodipodi:open="true"
     d="m 328.78584,290.51814 a 53.050079,53.050079 0 0 1 51.14953,52.24266 53.050079,53.050079 0 0 1 -49.60437,53.71199 53.050079,53.050079 0 0 1 -56.13852,-46.84054 53.050079,53.050079 0 0 1 43.95819,-58.42301" />
  <path
     d="m 540.46107,116.35494 a 53.050079,53.050079 0 0 1 51.14953,52.24267 53.050079,53.050079 0 0 1 -49.60436,53.71198 53.050079,53.050079 0 0 1 -56.13853,-46.84054 53.050079,53.050079 0 0 1 43.95819,-58.423"
     sodipodi:open="true"
     sodipodi:end="4.5468794"
     sodipodi:start="4.7481159"
     sodipodi:ry="53.050079"
     sodipodi:rx="53.050079"
     sodipodi:cy="169.37117"
     sodipodi:cx="538.56616"
     sodipodi:type="arc"
     id="path3490"
     style="fill:#aa87de" />
  <path
     style="fill:#aa87de"
     id="path3492"
     sodipodi:type="arc"
     sodipodi:cx="678.82849"
     sodipodi:cy="289.88773"
     sodipodi:rx="53.050079"
     sodipodi:ry="53.050079"
     sodipodi:start="4.7481159"
     sodipodi:end="4.5468794"
     sodipodi:open="true"
     d="m 680.7234,236.8715 a 53.050079,53.050079 0 0 1 51.14953,52.24267 53.050079,53.050079 0 0 1 -49.60436,53.71198 53.050079,53.050079 0 0 1 -56.13853,-46.84054 53.050079,53.050079 0 0 1 43.95819,-58.42301" />
  <path
     d="m 880.74916,65.44568 a 53.050079,53.050079 0 0 1 51.14953,52.24267 53.050079,53.050079 0 0 1 -49.60437,53.71198 53.050079,53.050079 0 0 1 -56.13852,-46.84054 53.050079,53.050079 0 0 1 43.95818,-58.423009"
     sodipodi:open="true"
     sodipodi:end="4.5468794"
     sodipodi:start="4.7481159"
     sodipodi:ry="53.050079"
     sodipodi:rx="53.050079"
     sodipodi:cy="118.46191"
     sodipodi:cx="878.85425"
     sodipodi:type="arc"
     id="path3494"
     style="fill:#aa87de" />
  <path
     style="fill:#aa87de"
     id="path3496"
     sodipodi:type="arc"
     sodipodi:cx="1058.3763"
     sodipodi:cy="356.93149"
     sodipodi:rx="53.050079"
     sodipodi:ry="53.050079"
     sodipodi:start="4.7481159"
     sodipodi:end="4.5468794"
     sodipodi:open="true"
     d="m 1060.2713,303.91526 a 53.050079,53.050079 0 0 1 51.1495,52.24267 53.050079,53.050079 0 0 1 -49.6044,53.71198 53.050079,53.050079 0 0 1 -56.1385,-46.84054 53.050079,53.050079 0 0 1 43.9582,-58.42301" />
  <rect
     style="fill:#beb7c8"
     id="rect3500"
     width="460.86261"
     height="16.076611"
     x="-78.270454"
     y="-230.43129"
     ry="0"
     transform="matrix(0,-1,1,0,0,0)" />
  <rect
     style="fill:#beb7c8"
     id="rect3502"
     width="158.08658"
     height="18.756035"
     x="-220.2804"
     y="259.90509"
     ry="9.3780174"
     transform="matrix(0,-1,-1,0,0,0)" />
  <path
     style="fill:#beb7c8;fill-rule:evenodd;stroke:#000000;stroke-width:1px;stroke-linecap:butt;stroke-linejoin:miter;stroke-opacity:1"
     d="m 206.31639,182.76833 42.87094,-48.2298 z"
     id="path3504"
     inkscape:connector-curvature="0" />
  <path
     style="fill:none;fill-rule:evenodd;stroke:#000000;stroke-width:1px;stroke-linecap:butt;stroke-linejoin:miter;stroke-opacity:1"
     d="m 292.05827,142.57683 29.47377,152.72772 z"
     id="path3506"
     inkscape:connector-curvature="0" />
  <path
     style="fill:none;fill-rule:evenodd;stroke:#000000;stroke-width:1px;stroke-linecap:butt;stroke-linejoin:miter;stroke-opacity:1"
     d="m 329.57034,99.70589 160.76602,50.90924 z"
     id="path3508"
     inkscape:connector-curvature="0" />
  <path
     style="fill:none;fill-rule:evenodd;stroke:#000000;stroke-width:1px;stroke-linecap:butt;stroke-linejoin:miter;stroke-opacity:1"
     d="M 589.4754,169.37117 825.26557,131.85909 Z"
     id="path3510"
     inkscape:connector-curvature="0" />
  <path
     style="fill:none;fill-rule:evenodd;stroke:#000000;stroke-width:0.9073211px;stroke-linecap:butt;stroke-linejoin:miter;stroke-opacity:1"
     d="M 651.13405,247.10903 586.73533,189.84057 Z"
     id="path3512"
     inkscape:connector-curvature="0" />
  <path
     style="fill:none;fill-rule:evenodd;stroke:#000000;stroke-width:1px;stroke-linecap:butt;stroke-linejoin:miter;stroke-opacity:1"
     d="m 734.16482,303.34285 267.94338,42.87094 z"
     id="path3514"
     inkscape:connector-curvature="0" />
  <path
     style="fill:none;fill-rule:evenodd;stroke:#000000;stroke-width:1px;stroke-linecap:butt;stroke-linejoin:miter;stroke-opacity:1"
     d="m 921.72518,88.988155 56.2681,-58.94754 z"
     id="path3516"
     inkscape:connector-curvature="0" />
  <path
     style="fill:none;fill-rule:evenodd;stroke:#000000;stroke-width:1px;stroke-linecap:butt;stroke-linejoin:miter;stroke-opacity:1"
     d="M 136.65112,265.83078 53.588673,284.58681 Z"
     id="path3518"
     inkscape:connector-curvature="0" />
  <path
     style="fill:#aa87de;fill-rule:evenodd;stroke:#000000;stroke-width:1px;stroke-linecap:butt;stroke-linejoin:miter;stroke-opacity:1"
     d="m 375.12071,336.39886 254.5462,-45.55038 z"
     id="path3520"
     inkscape:connector-curvature="0" />
  <path
     style="fill:none;fill-rule:evenodd;stroke:#000000;stroke-width:1px;stroke-linecap:butt;stroke-linejoin:miter;stroke-opacity:1"
     d="M 305.45544,394.44359 278.6611,445.35283 Z"
     id="path3522"
     inkscape:connector-curvature="0" />
  <path
     style="fill:none;fill-rule:evenodd;stroke:#000000;stroke-width:1px;stroke-linecap:butt;stroke-linejoin:miter;stroke-opacity:1"
     d="m 1101.2472,389.08472 53.5887,48.22981 z"
     id="path3524"
     inkscape:connector-curvature="0" />
  <text
     xml:space="preserve"
     style="font-style:normal;font-variant:normal;font-weight:normal;font-stretch:normal;font-size:40px;line-height:125%;font-family:sans-serif;-inkscape-font-specification:'sans-serif, Normal';text-align:start;letter-spacing:0px;word-spacing:0px;writing-mode:lr-tb;text-anchor:start;fill:#e5d5ff;fill-opacity:1;stroke:none;stroke-width:1px;stroke-linecap:butt;stroke-linejoin:miter;stroke-opacity:1"
     x="131.47092"
     y="238.4474"
     id="text3526"
     sodipodi:linespacing="125%"><tspan
       sodipodi:role="line"
       id="tspan3528"
       x="131.47092"
       y="238.4474">text</tspan></text>
  <text
     sodipodi:linespacing="125%"
     id="text3530"
     y="103.42323"
     x="239.84558"
     style="font-style:normal;font-variant:normal;font-weight:normal;font-stretch:normal;font-size:40px;line-height:125%;font-family:sans-serif;-inkscape-font-specification:'sans-serif, Normal';text-align:start;letter-spacing:0px;word-spacing:0px;writing-mode:lr-tb;text-anchor:start;fill:#e5d5ff;fill-opacity:1;stroke:none;stroke-width:1px;stroke-linecap:butt;stroke-linejoin:miter;stroke-opacity:1"
     xml:space="preserve"><tspan
       y="103.42323"
       x="239.84558"
       id="tspan3532"
       sodipodi:role="line">text</tspan></text>
  <text
     xml:space="preserve"
     style="font-style:normal;font-variant:normal;font-weight:normal;font-stretch:normal;font-size:40px;line-height:125%;font-family:sans-serif;-inkscape-font-specification:'sans-serif, Normal';text-align:start;letter-spacing:0px;word-spacing:0px;writing-mode:lr-tb;text-anchor:start;fill:#e5d5ff;fill-opacity:1;stroke:none;stroke-width:1px;stroke-linecap:butt;stroke-linejoin:miter;stroke-opacity:1"
     x="286.03806"
     y="357.48187"
     id="text3534"
     sodipodi:linespacing="125%"><tspan
       sodipodi:role="line"
       id="tspan3536"
       x="286.03806"
       y="357.48187">text</tspan></text>
  <text
     sodipodi:linespacing="125%"
     id="text3538"
     y="181.59512"
     x="501.01074"
     style="font-style:normal;font-variant:normal;font-weight:normal;font-stretch:normal;font-size:40px;line-height:125%;font-family:sans-serif;-inkscape-font-specification:'sans-serif, Normal';text-align:start;letter-spacing:0px;word-spacing:0px;writing-mode:lr-tb;text-anchor:start;fill:#e5d5ff;fill-opacity:1;stroke:none;stroke-width:1px;stroke-linecap:butt;stroke-linejoin:miter;stroke-opacity:1"
     xml:space="preserve"><tspan
       y="181.59512"
       x="501.01074"
       id="tspan3540"
       sodipodi:role="line">text</tspan></text>
  <text
     xml:space="preserve"
     style="font-style:normal;font-variant:normal;font-weight:normal;font-stretch:normal;font-size:40px;line-height:125%;font-family:sans-serif;-inkscape-font-specification:'sans-serif, Normal';text-align:start;letter-spacing:0px;word-spacing:0px;writing-mode:lr-tb;text-anchor:start;fill:#e5d5ff;fill-opacity:1;stroke:none;stroke-width:1px;stroke-linecap:butt;stroke-linejoin:miter;stroke-opacity:1"
     x="641.36481"
     y="300.62958"
     id="text3542"
     sodipodi:linespacing="125%"><tspan
       sodipodi:role="line"
       id="tspan3544"
       x="641.36481"
       y="300.62958">text</tspan></text>
  <text
     sodipodi:linespacing="125%"
     id="text3546"
     y="126.51946"
     x="838.57117"
     style="font-style:normal;font-variant:normal;font-weight:normal;font-stretch:normal;font-size:40px;line-height:125%;font-family:sans-serif;-inkscape-font-specification:'sans-serif, Normal';text-align:start;letter-spacing:0px;word-spacing:0px;writing-mode:lr-tb;text-anchor:start;fill:#e5d5ff;fill-opacity:1;stroke:none;stroke-width:1px;stroke-linecap:butt;stroke-linejoin:miter;stroke-opacity:1"
     xml:space="preserve"><tspan
       y="126.51946"
       x="838.57117"
       id="tspan3548"
       sodipodi:role="line">text</tspan></text>
  <text
     xml:space="preserve"
     style="font-style:normal;font-variant:normal;font-weight:normal;font-stretch:normal;font-size:40px;line-height:125%;font-family:sans-serif;-inkscape-font-specification:'sans-serif, Normal';text-align:start;letter-spacing:0px;word-spacing:0px;writing-mode:lr-tb;text-anchor:start;fill:#e5d5ff;fill-opacity:1;stroke:none;stroke-width:1px;stroke-linecap:butt;stroke-linejoin:miter;stroke-opacity:1"
     x="1018.0112"
     y="371.69492"
     id="text3550"
     sodipodi:linespacing="125%"><tspan
       sodipodi:role="line"
       id="tspan3552"
       x="1018.0112"
       y="371.69492">text</tspan></text>
</svg>
