<?xml version="1.0" encoding="UTF-8" standalone="no"?>
<!-- Created with Inkscape (http://www.inkscape.org/) -->

<svg
   xmlns:dc="http://purl.org/dc/elements/1.1/"
   xmlns:cc="http://creativecommons.org/ns#"
   xmlns:rdf="http://www.w3.org/1999/02/22-rdf-syntax-ns#"
   xmlns:svg="http://www.w3.org/2000/svg"
   xmlns="http://www.w3.org/2000/svg"
   xmlns:sodipodi="http://sodipodi.sourceforge.net/DTD/sodipodi-0.dtd"
   xmlns:inkscape="http://www.inkscape.org/namespaces/inkscape"
   id="svg3346"
   version="1.1"
   inkscape:version="0.91 r13725"
   width="1210"
   height="469"
   viewBox="0 0 1210 469"
   sodipodi:docname="round.svg">
  <metadata
     id="metadata3352">
    <rdf:RDF>
      <cc:Work
         rdf:about="">
        <dc:format>image/svg+xml</dc:format>
        <dc:type
           rdf:resource="http://purl.org/dc/dcmitype/StillImage" />
        <dc:title></dc:title>
      </cc:Work>
    </rdf:RDF>
  </metadata>
  <defs
     id="defs3350" />
  <sodipodi:namedview
     pagecolor="#ffffff"
     bordercolor="#666666"
     borderopacity="1"
     objecttolerance="10"
     gridtolerance="10"
     guidetolerance="10"
     inkscape:pageopacity="0"
     inkscape:pageshadow="2"
     inkscape:window-width="684"
     inkscape:window-height="433"
     id="namedview3348"
     showgrid="false"
     inkscape:zoom="0.68"
     inkscape:cx="587.96695"
     inkscape:cy="225.93305"
     inkscape:window-x="391"
     inkscape:window-y="0"
     inkscape:window-maximized="0"
     inkscape:current-layer="svg3346"
     showguides="true"
     inkscape:guide-bbox="true">
    <sodipodi:guide
       position="205.88235,107.35294"
       orientation="1,0"
       id="guide3412" />
    <sodipodi:guide
       position="1007.3529,325"
       orientation="0,1"
       id="guide3414" />
  </sodipodi:namedview>
  <path
     style="fill:#ccaaff"
     id="path3363"
     sodipodi:type="arc"
     sodipodi:cx="77.397255"
     sodipodi:cy="131.32614"
     sodipodi:rx="52.739727"
     sodipodi:ry="51.372486"
     sodipodi:start="4.7481159"
     sodipodi:end="4.5468794"
     sodipodi:open="true"
     d="M 79.281082,79.986438 A 52.739727,51.372486 0 0 1 130.13137,130.57704 52.739727,51.372486 0 0 1 80.817205,182.5905 52.739727,51.372486 0 0 1 25.007099,137.23119 52.739727,51.372486 0 0 1 68.708123,80.655685" />
  <path
     style="fill:#ccaaff"
     id="path3367"
     sodipodi:type="arc"
     sodipodi:cx="207.53424"
     sodipodi:cy="387.49054"
     sodipodi:rx="52.739727"
     sodipodi:ry="51.372486"
     sodipodi:start="4.7481159"
     sodipodi:end="4.5468794"
     sodipodi:open="true"
     d="m 209.41807,336.15084 a 52.739727,51.372486 0 0 1 50.85029,50.5906 52.739727,51.372486 0 0 1 -49.31417,52.01346 52.739727,51.372486 0 0 1 -55.8101,-45.35931 52.739727,51.372486 0 0 1 43.70102,-56.57551" />
  <path
     d="m 362.84275,185.46587 a 52.739727,51.372486 0 0 1 50.85029,50.5906 52.739727,51.372486 0 0 1 -49.31417,52.01346 52.739727,51.372486 0 0 1 -55.8101,-45.35931 52.739727,51.372486 0 0 1 43.70102,-56.5755"
     sodipodi:open="true"
     sodipodi:end="4.5468794"
     sodipodi:start="4.7481159"
     sodipodi:ry="51.372486"
     sodipodi:rx="52.739727"
     sodipodi:cy="236.80557"
     sodipodi:cx="360.95892"
     sodipodi:type="arc"
     id="path3369"
     style="fill:#ccaaff" />
  <path
     style="fill:#ccaaff"
     id="path3371"
     sodipodi:type="arc"
     sodipodi:cx="532.19177"
     sodipodi:cy="368.31241"
     sodipodi:rx="52.739727"
     sodipodi:ry="51.372486"
     sodipodi:start="4.7481159"
     sodipodi:end="4.5468794"
     sodipodi:open="true"
     d="m 534.0756,316.97271 a 52.739727,51.372486 0 0 1 50.85029,50.5906 52.739727,51.372486 0 0 1 -49.31417,52.01346 52.739727,51.372486 0 0 1 -55.8101,-45.35931 52.739727,51.372486 0 0 1 43.70102,-56.57551" />
  <path
     d="m 938.18522,364.91796 a 52.739727,51.372486 0 0 1 50.85029,50.5906 52.739727,51.372486 0 0 1 -49.31417,52.01346 52.739727,51.372486 0 0 1 -55.8101,-45.35931 52.739727,51.372486 0 0 1 43.70102,-56.57551"
     sodipodi:open="true"
     sodipodi:end="4.5468794"
     sodipodi:start="4.7481159"
     sodipodi:ry="51.372486"
     sodipodi:rx="52.739727"
     sodipodi:cy="416.25766"
     sodipodi:cx="936.30139"
     sodipodi:type="arc"
     id="path3373"
     style="fill:#ccaaff" />
  <path
     style="fill:#ccaaff"
     id="path3375"
     sodipodi:type="arc"
     sodipodi:cx="754.10962"
     sodipodi:cy="269.68228"
     sodipodi:rx="52.739727"
     sodipodi:ry="51.372486"
     sodipodi:start="4.7481159"
     sodipodi:end="4.5468794"
     sodipodi:open="true"
     d="m 755.99345,218.34258 a 52.739727,51.372486 0 0 1 50.85029,50.5906 52.739727,51.372486 0 0 1 -49.31417,52.01346 52.739727,51.372486 0 0 1 -55.81011,-45.35931 52.739727,51.372486 0 0 1 43.70103,-56.57551"
     inkscape:transform-center-x="1.369863"
     inkscape:transform-center-y="-1.369863" />
  <path
     d="m 853.35441,67.657657 a 52.739727,51.372486 0 0 1 50.85029,50.590603 52.739727,51.372486 0 0 1 -49.31417,52.01346 52.739727,51.372486 0 0 1 -55.8101,-45.35931 52.739727,51.372486 0 0 1 43.70102,-56.575507"
     sodipodi:open="true"
     sodipodi:end="4.5468794"
     sodipodi:start="4.7481159"
     sodipodi:ry="51.372486"
     sodipodi:rx="52.739727"
     sodipodi:cy="118.99736"
     sodipodi:cx="851.47058"
     sodipodi:type="arc"
     id="path3377"
     style="fill:#ccaaff" />
  <path
     style="fill:#ccaaff"
     id="path3379"
     sodipodi:type="arc"
     sodipodi:cx="1077.3972"
     sodipodi:cy="55.983665"
     sodipodi:rx="52.739727"
     sodipodi:ry="51.372486"
     sodipodi:start="4.7481159"
     sodipodi:end="4.5468794"
     sodipodi:open="true"
     d="m 1079.281,4.6439621 a 52.739727,51.372486 0 0 1 50.8503,50.5906059 52.739727,51.372486 0 0 1 -49.3141,52.013462 52.739727,51.372486 0 0 1 -55.8101,-45.359312 52.739727,51.372486 0 0 1 43.701,-56.5755094" />
  <path
     d="m 1150.514,262.17821 a 52.739727,51.372486 0 0 1 50.8502,50.59061 52.739727,51.372486 0 0 1 -49.3141,52.01346 52.739727,51.372486 0 0 1 -55.8101,-45.35931 52.739727,51.372486 0 0 1 43.701,-56.57551"
     sodipodi:open="true"
     sodipodi:end="4.5468794"
     sodipodi:start="4.7481159"
     sodipodi:ry="51.372486"
     sodipodi:rx="52.739727"
     sodipodi:cy="313.51791"
     sodipodi:cx="1148.6301"
     sodipodi:type="arc"
     id="path3381"
     style="fill:#ccaaff" />
  <path
     d="m 568.29769,112.86315 a 32.876713,31.503132 0 0 1 31.69888,31.02366 32.876713,31.503132 0 0 1 -30.7413,31.89619 32.876713,31.503132 0 0 1 -34.79072,-27.81567 32.876713,31.503132 0 0 1 27.2422,-34.69378"
     sodipodi:open="true"
     sodipodi:end="4.5468794"
     sodipodi:start="4.7481159"
     sodipodi:ry="31.503132"
     sodipodi:rx="32.876713"
     sodipodi:cy="144.34618"
     sodipodi:cx="567.12335"
     sodipodi:type="arc"
     id="path3383"
     style="fill:#ccaaff" />
  <path
     style="fill:#ccaaff"
     id="path3409"
     sodipodi:type="arc"
     sodipodi:cx="269.1781"
     sodipodi:cy="66.942574"
     sodipodi:rx="52.739727"
     sodipodi:ry="51.372486"
     sodipodi:start="4.7481159"
     sodipodi:end="4.5468794"
     sodipodi:open="true"
     d="M 271.06193,15.60287 A 52.739727,51.372486 0 0 1 321.91222,66.193476 52.739727,51.372486 0 0 1 272.59805,118.20694 52.739727,51.372486 0 0 1 216.78794,72.847626 52.739727,51.372486 0 0 1 260.48897,16.272117" />
  <text
     xml:space="preserve"
     style="font-style:normal;font-variant:normal;font-weight:normal;font-stretch:normal;font-size:17.5px;line-height:100%;font-family:sans-serif;-inkscape-font-specification:'sans-serif, Normal';text-align:center;letter-spacing:0px;word-spacing:0px;writing-mode:lr-tb;text-anchor:middle;fill:#fff6d5;fill-opacity:1;stroke:none;stroke-width:1px;stroke-linecap:butt;stroke-linejoin:miter;stroke-opacity:1"
     x="276.69183"
     y="62.674725"
     id="text3411"
     sodipodi:linespacing="100%"
     transform="scale(0.9741549,1.0265308)"><tspan
       sodipodi:role="line"
       id="tspan3413"
       x="276.69183"
       y="62.674725">Anothe</tspan><tspan
       sodipodi:role="line"
       x="276.69183"
       y="80.174728"
       id="tspan3415">feature</tspan></text>
  <text
     xml:space="preserve"
     style="font-style:normal;font-variant:normal;font-weight:normal;font-stretch:normal;font-size:17.5px;line-height:100%;font-family:sans-serif;-inkscape-font-specification:'sans-serif, Normal';text-align:center;letter-spacing:0px;word-spacing:0px;writing-mode:lr-tb;text-anchor:middle;fill:#fff6d5;fill-opacity:1;stroke:none;stroke-width:1px;stroke-linecap:butt;stroke-linejoin:miter;stroke-opacity:1"
     x="360.15311"
     y="233.58501"
     id="text3423"
     sodipodi:linespacing="100%"><tspan
       sodipodi:role="line"
       id="tspan3425"
       x="360.15311"
       y="233.58501">No</tspan><tspan
       sodipodi:role="line"
       x="360.15311"
       y="251.08501"
       id="tspan3427">contracts</tspan></text>
  <text
     xml:space="preserve"
     style="font-style:normal;font-variant:normal;font-weight:normal;font-stretch:normal;font-size:17.5px;line-height:100%;font-family:sans-serif;-inkscape-font-specification:'sans-serif, Normal';text-align:center;letter-spacing:0px;word-spacing:0px;writing-mode:lr-tb;text-anchor:middle;fill:#fff6d5;fill-opacity:1;stroke:none;stroke-width:1px;stroke-linecap:butt;stroke-linejoin:miter;stroke-opacity:1"
     x="207.6954"
     y="377.42059"
     id="text3429"
     sodipodi:linespacing="100%"><tspan
       sodipodi:role="line"
       id="tspan3431"
       x="207.6954"
       y="377.42059">Like</tspan><tspan
       sodipodi:role="line"
       x="207.6954"
       y="394.92059"
       id="tspan3433">minded</tspan><tspan
       sodipodi:role="line"
       x="207.6954"
       y="412.42059"
       id="tspan3435">people</tspan></text>
  <text
     xml:space="preserve"
     style="font-style:normal;font-variant:normal;font-weight:normal;font-stretch:normal;font-size:17.5px;line-height:100%;font-family:sans-serif;-inkscape-font-specification:'sans-serif, Normal';text-align:center;letter-spacing:0px;word-spacing:0px;writing-mode:lr-tb;text-anchor:middle;fill:#fff6d5;fill-opacity:1;stroke:none;stroke-width:1px;stroke-linecap:butt;stroke-linejoin:miter;stroke-opacity:1"
     x="76.390015"
     y="119.48349"
     id="text3437"
     sodipodi:linespacing="100%"><tspan
       sodipodi:role="line"
       id="tspan3439"
       x="76.390015"
       y="119.48349">Coffe</tspan><tspan
       sodipodi:role="line"
       x="76.390015"
       y="136.98349"
       id="tspan3441">shop on</tspan><tspan
       sodipodi:role="line"
       x="76.390015"
       y="154.48349"
       id="tspan3443">site</tspan></text>
  <text
     xml:space="preserve"
     style="font-style:normal;font-variant:normal;font-weight:normal;font-stretch:normal;font-size:17.5px;line-height:100%;font-family:sans-serif;-inkscape-font-specification:'sans-serif, Normal';text-align:center;letter-spacing:0px;word-spacing:0px;writing-mode:lr-tb;text-anchor:middle;fill:#fff6d5;fill-opacity:1;stroke:none;stroke-width:1px;stroke-linecap:butt;stroke-linejoin:miter;stroke-opacity:1"
     x="753.20306"
     y="269.30219"
     id="text3451"
     sodipodi:linespacing="100%"><tspan
       sodipodi:role="line"
       id="tspan3453"
       x="753.20306"
       y="269.30219">Inspiring</tspan><tspan
       sodipodi:role="line"
       x="753.20306"
       y="286.80219"
       id="tspan3455">spaces</tspan></text>
  <text
     xml:space="preserve"
     style="font-style:normal;font-variant:normal;font-weight:normal;font-stretch:normal;font-size:17.5px;line-height:100%;font-family:sans-serif;-inkscape-font-specification:'sans-serif, Normal';text-align:center;letter-spacing:0px;word-spacing:0px;writing-mode:lr-tb;text-anchor:middle;fill:#fff6d5;fill-opacity:1;stroke:none;stroke-width:1px;stroke-linecap:butt;stroke-linejoin:miter;stroke-opacity:1"
     x="850.76544"
     y="107.15471"
     id="text3457"
     sodipodi:linespacing="100%"><tspan
       sodipodi:role="line"
       id="tspan3459"
       x="850.76544"
       y="107.15471">Business</tspan><tspan
       sodipodi:role="line"
       x="850.76544"
       y="124.65471"
       id="tspan3461">Mentors</tspan><tspan
       sodipodi:role="line"
       x="850.76544"
       y="142.15471"
       id="tspan3463">On-site</tspan></text>
  <text
     xml:space="preserve"
     style="font-style:normal;font-variant:normal;font-weight:normal;font-stretch:normal;font-size:17.5px;line-height:100%;font-family:sans-serif;-inkscape-font-specification:'sans-serif, Normal';text-align:start;letter-spacing:0px;word-spacing:0px;writing-mode:lr-tb;text-anchor:start;fill:#fff6d5;fill-opacity:1;stroke:none;stroke-width:1px;stroke-linecap:butt;stroke-linejoin:miter;stroke-opacity:1"
     x="905.68091"
     y="413.03705"
     id="text3465"
     sodipodi:linespacing="100%"><tspan
       sodipodi:role="line"
       id="tspan3467"
       x="905.68091"
       y="413.03705">Anothe</tspan><tspan
       sodipodi:role="line"
       x="905.68091"
       y="430.53705"
       id="tspan3469">feature</tspan></text>
  <text
     sodipodi:linespacing="100%"
     id="text3471"
     y="308.72598"
     x="1116.2371"
     style="font-style:normal;font-variant:normal;font-weight:normal;font-stretch:normal;font-size:17.5px;line-height:100%;font-family:sans-serif;-inkscape-font-specification:'sans-serif, Normal';text-align:start;letter-spacing:0px;word-spacing:0px;writing-mode:lr-tb;text-anchor:start;fill:#fff6d5;fill-opacity:1;stroke:none;stroke-width:1px;stroke-linecap:butt;stroke-linejoin:miter;stroke-opacity:1"
     xml:space="preserve"><tspan
       y="308.72598"
       x="1116.2371"
       id="tspan3473"
       sodipodi:role="line">Anothe</tspan><tspan
       id="tspan3475"
       y="326.22598"
       x="1116.2371"
       sodipodi:role="line">feature</tspan></text>
  <text
     xml:space="preserve"
     style="font-style:normal;font-variant:normal;font-weight:normal;font-stretch:normal;font-size:17.5px;line-height:100%;font-family:sans-serif;-inkscape-font-specification:'sans-serif, Normal';text-align:center;letter-spacing:0px;word-spacing:0px;writing-mode:lr-tb;text-anchor:middle;fill:#fff6d5;fill-opacity:1;stroke:none;stroke-width:1px;stroke-linecap:butt;stroke-linejoin:miter;stroke-opacity:1"
     x="1078.8276"
     y="53.931473"
     id="text3477"
     sodipodi:linespacing="100%"><tspan
       sodipodi:role="line"
       id="tspan3479"
       x="1078.8276"
       y="53.931473">Anothe</tspan><tspan
       sodipodi:role="line"
       x="1078.8276"
       y="71.431473"
       id="tspan3481">feature</tspan></text>
  <path
     style="fill:none;fill-rule:evenodd;stroke:#000000;stroke-width:1px;stroke-linecap:butt;stroke-linejoin:miter;stroke-opacity:1"
     d="M 338.35616,384.06849 Z"
     id="path3485"
     inkscape:connector-curvature="0" />
  <path
     style="fill:none;fill-rule:evenodd;stroke:#000000;stroke-width:1px;stroke-linecap:butt;stroke-linejoin:miter;stroke-opacity:1"
     d="M 746.57534,408.72603 Z"
     id="path3517"
     inkscape:connector-curvature="0" />
  <rect
     transform="scale(1,-1)"
     style="fill:#c8beb7"
     id="rect3523"
     width="198.63014"
     height="3.9192116e-008"
     x="473.97263"
     y="-27.904108" />
  <rect
     y="-27.904108"
     x="473.97263"
     height="3.9192116e-008"
     width="198.63014"
     id="rect3525"
     style="fill:#c8beb7"
     transform="scale(1,-1)" />
  <rect
     transform="scale(1,-1)"
     style="fill:#c8beb7"
     id="rect3527"
     width="198.63014"
     height="3.9192116e-008"
     x="483.56168"
     y="-64.890411" />
  <rect
     transform="scale(1,-1)"
     style="fill:#c8beb7"
     id="rect3529"
     width="198.63014"
     height="3.9192116e-008"
     x="445.20551"
     y="-81.328766" />
  <rect
     transform="scale(1,-1)"
     style="fill:#c8beb7"
     id="rect3531"
     width="198.63014"
     height="3.9192116e-008"
     x="463.01373"
     y="-62.150684" />
  <path
     style="fill:#c8beb7"
     id="path3543"
     sodipodi:type="arc"
     sodipodi:cx="41.780823"
     sodipodi:cy="258.04111"
     sodipodi:rx="14.529592"
     sodipodi:ry="15.498231"
     sodipodi:start="4.7481159"
     sodipodi:end="4.5468794"
     sodipodi:open="true"
     d="M 42.29981,242.55277 A 14.529592,15.498231 0 0 1 56.30887,257.81512 14.529592,15.498231 0 0 1 42.723006,273.50672 14.529592,15.498231 0 0 1 27.347537,259.82256 14.529592,15.498231 0 0 1 39.387,242.75467" />
  <path
     style="fill:#c8beb7"
     id="path3545"
     sodipodi:type="arc"
     sodipodi:cx="708.21918"
     sodipodi:cy="60.781693"
     sodipodi:rx="10.821226"
     sodipodi:ry="10.820352"
     sodipodi:start="4.7481159"
     sodipodi:end="4.5468794"
     sodipodi:open="true"
     d="m 708.6057,49.968246 a 10.821226,10.820352 0 0 1 10.43355,10.655668 10.821226,10.820352 0 0 1 -10.11836,10.955356 10.821226,10.820352 0 0 1 -11.45121,-9.553823 10.821226,10.820352 0 0 1 8.96665,-11.916241" />
  <path
     style="fill:#c8beb7"
     id="path3547"
     sodipodi:type="arc"
     sodipodi:cx="945.20544"
     sodipodi:cy="243.65753"
     sodipodi:rx="16.300678"
     sodipodi:ry="14.529592"
     sodipodi:start="4.7481159"
     sodipodi:end="4.5468794"
     sodipodi:open="true"
     d="m 945.78769,229.13721 a 16.300678,14.529592 0 0 1 15.7167,14.30846 16.300678,14.529592 0 0 1 -15.24192,14.71087 16.300678,14.529592 0 0 1 -17.24966,-12.82889 16.300678,14.529592 0 0 1 13.50702,-16.00116" />
  <path
     style="fill:#c8beb7;fill-rule:evenodd;stroke:#000000;stroke-width:1px;stroke-linecap:butt;stroke-linejoin:miter;stroke-opacity:1"
     d="m 128.76712,114.20548 89.0411,-34.246576 -93.15069,27.397256 z"
     id="path3559"
     inkscape:connector-curvature="0" />
  <path
     style="fill:#c8beb7;fill-rule:evenodd;stroke:#000000;stroke-width:1px;stroke-linecap:butt;stroke-linejoin:miter;stroke-opacity:1"
     d="m 42.465753,170.36986 -1.369863,73.97261 6.849315,-68.49315 z"
     id="path3561"
     inkscape:connector-curvature="0" />
  <path
     style="fill:none;fill-rule:evenodd;stroke:#000000;stroke-width:1px;stroke-linecap:butt;stroke-linejoin:miter;stroke-opacity:1"
     d="M -101.36986,175.84932 Z"
     id="path3563"
     inkscape:connector-curvature="0" />
  <path
     style="fill:#ac9d93;fill-rule:evenodd;stroke:#000000;stroke-width:1px;stroke-linecap:butt;stroke-linejoin:miter;stroke-opacity:1"
     d="M 157.53425,369 50.684932,271.73973 158.90411,363.52055 Z"
     id="path3565"
     inkscape:connector-curvature="0" />
  <path
     style="fill:#ac9d93;fill-rule:evenodd;stroke:#000000;stroke-width:1.02540934px;stroke-linecap:butt;stroke-linejoin:miter;stroke-opacity:1"
     d="m 239.74375,346.8703 87.64271,-73.75252 -80.68694,79.42579 z"
     id="path3567"
     inkscape:connector-curvature="0" />
  <path
     style="fill:#ac9d93;fill-rule:evenodd;stroke:#000000;stroke-width:1px;stroke-linecap:butt;stroke-linejoin:miter;stroke-opacity:1"
     d="m 298.63014,110.09589 41.09589,78.08219 -35.61644,-84.9315 z"
     id="path3573"
     inkscape:connector-curvature="0" />
  <path
     style="fill:#ac9d93;fill-rule:evenodd;stroke:#000000;stroke-width:1.10519254px;stroke-linecap:butt;stroke-linejoin:miter;stroke-opacity:1"
     d="M 410.36697,216.1083 534.97438,151.60215 407.68509,210.32281 Z"
     id="path3575"
     inkscape:connector-curvature="0" />
  <path
     style="fill:#ac9d93;fill-rule:evenodd;stroke:#000000;stroke-width:1.02285147px;stroke-linecap:butt;stroke-linejoin:miter;stroke-opacity:1"
     d="m 398.63792,272.10065 91.75683,64.0181 -86.35936,-69.83792 z"
     id="path3579"
     inkscape:connector-curvature="0" />
  <path
     style="fill:#ac9d93;fill-rule:evenodd;stroke:#000000;stroke-width:1px;stroke-linecap:butt;stroke-linejoin:miter;stroke-opacity:1"
     d="M 797.87074,132.66188 602.71521,140.54764 795.9814,126.83428 Z"
     id="path3583"
     inkscape:connector-curvature="0" />
  <path
     style="fill:#ac9d93;fill-rule:evenodd;stroke:#000000;stroke-width:1.06553876px;stroke-linecap:butt;stroke-linejoin:miter;stroke-opacity:1"
     d="M 799.92139,103.1944 719.20575,64.92047 802.70468,95.539616 Z"
     id="path3587"
     inkscape:connector-curvature="0" />
  <path
     style="fill:#ac9d93;fill-rule:evenodd;stroke:#000000;stroke-width:1px;stroke-linecap:butt;stroke-linejoin:miter;stroke-opacity:1"
     d="M 897.26027,96.39726 1026.0274,69 901.36986,103.24658 Z"
     id="path3589"
     inkscape:connector-curvature="0" />
  <path
     style="fill:#ac9d93;fill-rule:evenodd;stroke:#000000;stroke-width:1px;stroke-linecap:butt;stroke-linejoin:miter;stroke-opacity:1"
     d="m 876.71233,163.52055 57.53425,67.12329 -50.68494,-71.23288 z"
     id="path3591"
     inkscape:connector-curvature="0" />
  <path
     style="fill:#ac9d93;fill-rule:evenodd;stroke:#000000;stroke-width:1px;stroke-linecap:butt;stroke-linejoin:miter;stroke-opacity:1"
     d="M 808.21918,267.63014 927.39726,248.45205 806.84932,260.78082 Z"
     id="path3593"
     inkscape:connector-curvature="0" />
  <path
     style="fill:#ac9d93;fill-rule:evenodd;stroke:#000000;stroke-width:1px;stroke-linecap:butt;stroke-linejoin:miter;stroke-opacity:1"
     d="m 780.82192,314.20548 109.58904,73.9726 -105.47945,-78.08219 z"
     id="path3595"
     inkscape:connector-curvature="0" />
  <path
     style="fill:#ac9d93;fill-rule:evenodd;stroke:#000000;stroke-width:1px;stroke-linecap:butt;stroke-linejoin:miter;stroke-opacity:1"
     d="m 884.93151,434.75342 -79.45206,19.17809 83.56165,-13.69863 z"
     id="path3597"
     inkscape:connector-curvature="0" />
  <path
     style="fill:#ac9d93;fill-rule:evenodd;stroke:#000000;stroke-width:1px;stroke-linecap:butt;stroke-linejoin:miter;stroke-opacity:1"
     d="M 1095.8904,304.61644 957.53425,249.82192 1097.2603,296.39726 Z"
     id="path3599"
     inkscape:connector-curvature="0" />
  <path
     style="fill:none;fill-rule:evenodd;stroke:#000000;stroke-width:1px;stroke-linecap:butt;stroke-linejoin:miter;stroke-opacity:1"
     d="M 698.63014,599.13699 Z"
     id="path3601"
     inkscape:connector-curvature="0" />
  <text
     xml:space="preserve"
     style="font-style:normal;font-variant:normal;font-weight:normal;font-stretch:normal;font-size:17.5px;line-height:80.00000119%;font-family:sans-serif;-inkscape-font-specification:'sans-serif, Normal';text-align:start;letter-spacing:0px;word-spacing:0px;writing-mode:lr-tb;text-anchor:start;fill:#fff6d5;fill-opacity:1;stroke:none;stroke-width:1px;stroke-linecap:butt;stroke-linejoin:miter;stroke-opacity:1"
     x="506.7486"
     y="362.75504"
     id="text3603"
     sodipodi:linespacing="80.000001%"><tspan
       sodipodi:role="line"
       id="tspan3605"
       x="506.7486"
       y="362.75504">Open</tspan></text>
  <text
     xml:space="preserve"
     style="font-style:normal;font-variant:normal;font-weight:normal;font-stretch:normal;font-size:17.5px;line-height:80.00000119%;font-family:sans-serif;-inkscape-font-specification:'sans-serif, Normal';text-align:start;letter-spacing:0px;word-spacing:0px;writing-mode:lr-tb;text-anchor:start;fill:#fff6d5;fill-opacity:1;stroke:none;stroke-width:1px;stroke-linecap:butt;stroke-linejoin:miter;stroke-opacity:1"
     x="512.22803"
     y="387.41257"
     id="text3607"
     sodipodi:linespacing="80.000001%"><tspan
       sodipodi:role="line"
       id="tspan3609"
       x="512.22803"
       y="387.41257">24/7</tspan></text>
</svg>
