<svg xmlns="http://www.w3.org/2000/svg" width="1225" height="458.75" viewBox="0 0 1225 458.75"><path d="M116.109-3001.689s9.924-59.543 65.497-59.543c55.574 0 67.482 58.55 64.505 76.414-2.977 17.863-28.78 53.588-63.513 53.588s-67.482-17.863-66.49-70.459zm240.156-78.398s9.924-59.543 65.498-59.543c55.573 0 67.482 58.55 64.505 76.413-2.978 17.863-28.78 53.589-63.513 53.589s-67.482-17.863-66.49-70.46zm118.094 209.393s9.924-59.543 65.497-59.543c55.574 0 67.482 58.55 64.505 76.413-2.977 17.863-28.779 53.589-63.512 53.589-34.734 0-67.482-17.863-66.49-70.46zM279.852-2677.18s9.924-59.543 65.497-59.543c55.574 0 67.482 58.551 64.505 76.414-2.977 17.863-28.779 53.589-63.512 53.589-34.734 0-67.482-17.863-66.49-70.46z" fill="purple" fill-rule="evenodd" stroke="#000"/><path d="M164.736-2934.207l-28.78 91.3-76.413 130.994 2.977 1.985 75.421-130.995 154.812 134.964.992-3.97-158.78-137.94 26.793-89.315zm76.413-77.406l117.101-43.665v4.962l-114.124 42.673zm147.865 295.73l103.208-101.223 3.97 1.985-104.2 103.208zm-240.157-334.433l-37.71-72.444 1.985-1.984z" fill="#f0f" fill-rule="evenodd" stroke="#000"/><path d="M148.857-3050.316l-37.71-72.444 1.985-1.984z" fill="#f0f" fill-rule="evenodd" stroke="#000"/><path d="M685.737-2706.951s9.923-59.543 65.497-59.543c55.573 0 67.482 58.55 64.505 76.413-2.977 17.863-28.78 53.589-63.513 53.589s-67.482-17.863-66.49-70.46zm278.859-123.056s9.924-59.543 65.497-59.543c55.574 0 67.482 58.551 64.505 76.414-2.977 17.863-28.779 53.588-63.512 53.588-34.734 0-67.482-17.862-66.49-70.459zm116.109-187.56s9.924-59.543 65.497-59.543c55.574 0 67.482 58.55 64.505 76.413-2.977 17.863-28.779 53.59-63.512 53.59-34.734 0-67.483-17.864-66.49-70.46zm286.799-77.406s9.923-59.543 65.497-59.543c55.573 0 67.482 58.55 64.505 76.414-2.978 17.862-28.78 53.588-63.513 53.588s-67.482-17.863-66.49-70.459z" fill="purple" fill-rule="evenodd" stroke="#000"/><path d="M1365.519-3079.095l-159.774 53.589 3.97 7.939 156.796-56.566zm-182.599 115.117l82.368 110.154-170.69 22.825-2.977-5.954 162.75-20.84z" fill="#f0f" fill-rule="evenodd" stroke="#000"/><path d="M1086.66-3039.4l-118.094-63.512-163.744 176.644-206.415 51.604 5.954 4.962s196.492-47.634 200.461-50.612c3.97-2.977 166.72-177.636 166.72-177.636l117.102 66.49z" fill="#0ff" fill-rule="evenodd" stroke="#000"/><text style="line-height:80.00000119%;-inkscape-font-specification:'sans-serif, Normal';text-align:start" x="128.129" y="-3265.747" transform="scale(1.09207 .9157)" font-weight="400" font-size="36.627" font-family="sans-serif" letter-spacing="0" word-spacing="0" fill="#fff"><tspan x="128.129" y="-3265.747">text</tspan></text><path d="M95.736 182.272s9.923-59.543 65.497-59.543c55.573 0 67.482 58.55 64.505 76.414-2.977 17.863-28.78 53.588-63.513 53.588s-67.482-17.863-66.49-70.459zM298.38 87.797s9.924-59.543 65.497-59.543c55.574 0 67.482 58.55 64.505 76.414-2.977 17.863-28.779 53.588-63.512 53.588-34.734 0-67.482-17.862-66.49-70.459zm-29.275 265.661s9.924-59.543 65.497-59.543c55.574 0 67.482 58.55 64.505 76.414-2.977 17.863-28.78 53.588-63.513 53.588s-67.482-17.863-66.49-70.459zm-148.957 27.39s9.924-59.543 65.497-59.543c55.574 0 67.482 58.55 64.505 76.414-2.977 17.862-28.779 53.588-63.512 53.588-34.734 0-67.482-17.863-66.49-70.459z" fill="purple" fill-rule="evenodd" stroke="#000"/><path d="M130.965 193.486l-28.779 91.3L25.773 415.78l2.977 1.985 75.42-130.995 154.813 134.964.992-3.97-158.781-137.94 26.794-89.315zm65.695-45.253l117.102-43.664v4.961l-114.124 42.673z" fill="#f0f" fill-rule="evenodd" stroke="#000"/><path d="M234.67 419.849l103.207-101.223 3.97 1.984-104.2 103.208zM680.448 114.89l-37.711-72.445 1.985-1.984zm-541.246 34.832l-37.71-72.444 1.984-1.985z" fill="#f0f" fill-rule="evenodd" stroke="#000"/><path d="M673.402 75.095s9.923-59.543 65.497-59.543c55.573 0 67.482 58.55 64.505 76.413-2.977 17.863-28.78 53.589-63.513 53.589s-67.482-17.863-66.49-70.46zm-10.52 302.975s9.924-59.544 65.498-59.544c55.573 0 67.482 58.55 64.505 76.414-2.978 17.863-28.78 53.588-63.513 53.588s-67.482-17.862-66.49-70.459zm185.774-115.216s9.924-59.543 65.498-59.543c55.573 0 67.482 58.55 64.505 76.413-2.978 17.863-28.78 53.589-63.513 53.589s-67.482-17.863-66.49-70.46zm246.608-114.918s9.923-59.543 65.497-59.543c55.573 0 67.482 58.55 64.505 76.413-2.978 17.863-28.78 53.589-63.513 53.589s-67.482-17.863-66.49-70.46z" fill="purple" fill-rule="evenodd" stroke="#000"/><path d="M1122.753 179.89l-159.774 53.59 3.97 7.938 156.796-56.566zm-249.585 91.002l82.368 110.154-170.69 22.825-2.977-5.954 162.75-20.84z" fill="#f0f" fill-rule="evenodd" stroke="#000"/><path d="M873.367 200.83l-118.094-63.513L591.53 313.961l-206.416 51.604 5.955 4.962s196.491-47.634 200.461-50.611c3.97-2.978 166.72-177.637 166.72-177.637l117.102 66.49z" fill="#0ff" fill-rule="evenodd" stroke="#000"/><text style="line-height:80.00000119%;-inkscape-font-specification:'sans-serif, Normal';text-align:start" x="109.474" y="211.359" transform="scale(1.09207 .9157)" font-weight="400" font-size="36.627" font-family="sans-serif" letter-spacing="0" word-spacing="0" fill="#fff"><tspan x="109.474" y="211.359">text</tspan></text></svg>