<svg xmlns="http://www.w3.org/2000/svg" width="1210" height="469" viewBox="0 0 1210 469"><path d="M-189.123 102.293a52.74 51.372 0 0 1 50.85 50.591 52.74 51.372 0 0 1-49.314 52.013 52.74 51.372 0 0 1-55.81-45.359 52.74 51.372 0 0 1 43.7-56.575m20.239 425.362a52.74 51.372 0 0 1 50.85 50.59 52.74 51.372 0 0 1-49.314 52.014 52.74 51.372 0 0 1-55.81-45.36 52.74 51.372 0 0 1 43.7-56.575" fill="#caf"/><path d="M-186.897 186.195a52.74 51.372 0 0 1 50.85 50.59A52.74 51.372 0 0 1-185.36 288.8a52.74 51.372 0 0 1-55.81-45.36 52.74 51.372 0 0 1 43.701-56.575M191.687 593.32a52.74 51.372 0 0 1 50.85 50.591 52.74 51.372 0 0 1-49.313 52.014 52.74 51.372 0 0 1-55.81-45.36 52.74 51.372 0 0 1 43.7-56.575m838.556-42.798a52.74 51.372 0 0 1 50.85 50.59 52.74 51.372 0 0 1-49.314 52.014 52.74 51.372 0 0 1-55.81-45.359 52.74 51.372 0 0 1 43.701-56.575m-498.221 40.595a52.74 51.372 0 0 1 50.85 50.59 52.74 51.372 0 0 1-49.314 52.014 52.74 51.372 0 0 1-55.81-45.36 52.74 51.372 0 0 1 43.701-56.575m686.67-821.462a52.74 51.372 0 0 1 50.85 50.59 52.74 51.372 0 0 1-49.314 52.014 52.74 51.372 0 0 1-55.81-45.359 52.74 51.372 0 0 1 43.701-56.576m254.299 106.584a52.74 51.372 0 0 1 50.85 50.59 52.74 51.372 0 0 1-49.314 52.014 52.74 51.372 0 0 1-55.81-45.36 52.74 51.372 0 0 1 43.701-56.575m-23.177 382.592a52.74 51.372 0 0 1 50.85 50.59 52.74 51.372 0 0 1-49.314 52.014 52.74 51.372 0 0 1-55.81-45.359 52.74 51.372 0 0 1 43.7-56.576M-175.146 17.79a52.74 51.372 0 0 1 50.85 50.59 52.74 51.372 0 0 1-49.314 52.014 52.74 51.372 0 0 1-55.81-45.36 52.74 51.372 0 0 1 43.701-56.575" fill="#caf"/><text style="line-height:100%;-inkscape-font-specification:'sans-serif, Normal';text-align:center" x="276.692" y="62.675" transform="scale(.97415 1.02653)" font-weight="400" font-size="17.5" font-family="sans-serif" letter-spacing="0" word-spacing="0" text-anchor="middle" fill="#fff6d5"><tspan x="276.692" y="62.675">Anothe</tspan><tspan x="276.692" y="80.175">feature</tspan></text><text style="line-height:100%;-inkscape-font-specification:'sans-serif, Normal';text-align:center" x="-191.774" y="138.073" font-weight="400" font-size="17.5" font-family="sans-serif" letter-spacing="0" word-spacing="0" text-anchor="middle" fill="#fff6d5"><tspan x="-191.774" y="138.073">No</tspan><tspan x="-191.774" y="155.573">contracts</tspan></text><text style="line-height:100%;-inkscape-font-specification:'sans-serif, Normal';text-align:center" x="50.732" y="610.063" font-weight="400" font-size="17.5" font-family="sans-serif" letter-spacing="0" word-spacing="0" text-anchor="middle" fill="#fff6d5"><tspan x="50.732" y="610.063">Like</tspan><tspan x="50.732" y="627.563">minded</tspan><tspan x="50.732" y="645.063">people</tspan></text><text style="line-height:100%;-inkscape-font-specification:'sans-serif, Normal';text-align:center" x="-182.911" y="136.008" font-weight="400" font-size="17.5" font-family="sans-serif" letter-spacing="0" word-spacing="0" text-anchor="middle" fill="#fff6d5"><tspan x="-182.911" y="136.008">Coffe</tspan><tspan x="-182.911" y="153.508">shop on</tspan><tspan x="-182.911" y="171.008">site</tspan></text><text style="line-height:100%;-inkscape-font-specification:'sans-serif, Normal';text-align:center" x="994.019" y="641.215" font-weight="400" font-size="17.5" font-family="sans-serif" letter-spacing="0" word-spacing="0" text-anchor="middle" fill="#fff6d5"><tspan x="994.019" y="641.215">Inspiring</tspan><tspan x="994.019" y="658.715">spaces</tspan></text><text style="line-height:100%;-inkscape-font-specification:'sans-serif, Normal';text-align:center" x="847.24" y="-201.762" font-weight="400" font-size="17.5" font-family="sans-serif" letter-spacing="0" word-spacing="0" text-anchor="middle" fill="#fff6d5"><tspan x="847.24" y="-201.762">Business</tspan><tspan x="847.24" y="-184.262">Mentors</tspan><tspan x="847.24" y="-166.762">On-site</tspan></text><text style="line-height:100%;-inkscape-font-specification:'sans-serif, Normal';text-align:start" x="1034.504" y="601.418" font-weight="400" font-size="17.5" font-family="sans-serif" letter-spacing="0" word-spacing="0" fill="#fff6d5"><tspan x="1034.504" y="601.418">Anothe</tspan><tspan x="1034.504" y="618.918">feature</tspan></text><text y="231.442" x="1311.635" style="line-height:100%;-inkscape-font-specification:'sans-serif, Normal';text-align:start" font-weight="400" font-size="17.5" font-family="sans-serif" letter-spacing="0" word-spacing="0" fill="#fff6d5"><tspan y="231.442" x="1311.635">Anothe</tspan><tspan y="248.942" x="1311.635">feature</tspan></text><text style="line-height:100%;-inkscape-font-specification:'sans-serif, Normal';text-align:center" x="1337.496" y="-75.918" font-weight="400" font-size="17.5" font-family="sans-serif" letter-spacing="0" word-spacing="0" text-anchor="middle" fill="#fff6d5"><tspan x="1337.496" y="-75.918">Anothe</tspan><tspan x="1337.496" y="-58.418">feature</tspan></text><path d="M42.3 242.553a14.53 15.498 0 0 1 14.009 15.262 14.53 15.498 0 0 1-13.586 15.692 14.53 15.498 0 0 1-15.375-13.684 14.53 15.498 0 0 1 12.039-17.068M742.873 9.868a10.821 10.82 0 0 1 10.434 10.656 10.821 10.82 0 0 1-10.119 10.955 10.821 10.82 0 0 1-11.45-9.554 10.821 10.82 0 0 1 8.966-11.916m205.084 219.128a16.3 14.53 0 0 1 15.716 14.309 16.3 14.53 0 0 1-15.242 14.71 16.3 14.53 0 0 1-17.25-12.828 16.3 14.53 0 0 1 13.508-16.002" fill="#c8beb7"/><path d="M124.704 123.633l98.427-38.111-99.776 35.679z" fill="#c8beb7" fill-rule="evenodd" stroke="#000"/><path d="M51.318 162.75l-7.982 79.417 10.098-77.664z" fill="#c8beb7" fill-rule="evenodd" stroke="#000" stroke-width="1.056"/><path d="M156.805 352.23l-106.12-80.49 105.303 75.74z" fill="#ac9d93" fill-rule="evenodd" stroke="#000"/><path d="M250.055 351.275l102.808-97.062-102.9 101.164z" fill="#ac9d93" fill-rule="evenodd" stroke="#000" stroke-width="1.153"/><path d="M297.151 118.185l42.613 69.956-40.09-71.143z" fill="#ac9d93" fill-rule="evenodd" stroke="#000" stroke-width=".956"/><path d="M411.786 224.773l123.135-73.137-123.551 70.56z" fill="#ac9d93" fill-rule="evenodd" stroke="#000" stroke-width="1.194"/><path d="M389.16 263.351l101.235 72.768-96.567-72.755z" fill="#ac9d93" fill-rule="evenodd" stroke="#000" stroke-width="1.023"/><path d="M801.516 128.287l-176.928 23.197 175.768-26.837z" fill="#ac9d93" fill-rule="evenodd" stroke="#000"/><path d="M820.336 90.07l-69.779-61.604 74.02 58.324z" fill="#ac9d93" fill-rule="evenodd" stroke="#000" stroke-width="1.066"/><path d="M897.26 125.561l138.042-34.92-138.18 30.91zm-20.548 37.959l57.535 67.124-54.33-71.233zm-65.576 110.672l116.261-25.74-116.902 21.807z" fill="#ac9d93" fill-rule="evenodd" stroke="#000"/><path d="M788.07 312.039L890.412 388.2l-98.585-78.124z" fill="#ac9d93" fill-rule="evenodd" stroke="#000" stroke-width=".961"/><path d="M889.306 414.339l-83.827 39.593 85.02-36.301zm208.772-113.369l-140.544-51.148 139.726 46.575z" fill="#ac9d93" fill-rule="evenodd" stroke="#000"/><text style="line-height:80.00000119%;-inkscape-font-specification:'sans-serif, Normal';text-align:start" x="274.267" y="619.524" font-weight="400" font-size="17.5" font-family="sans-serif" letter-spacing="0" word-spacing="0" fill="#fff6d5"><tspan x="274.267" y="619.524">Open</tspan></text><text style="line-height:80.00000119%;-inkscape-font-specification:'sans-serif, Normal';text-align:start" x="1029.515" y="-189.609" transform="scale(.33653 -2.9715)" font-weight="400" font-size="52.001" font-family="sans-serif" letter-spacing="0" word-spacing="0" fill="#fff6d5"><tspan x="1029.515" y="-189.609">24/7</tspan></text><path d="M-594.048-126.238L-700-184.571v-90.477l105.952-60.714 105.953 61.905 1.19 88.095z" fill="#cd87de" fill-rule="evenodd" stroke="#000"/><path d="M-652.701-707.276a107.69 104.916 0 0 1 103.832 103.32 107.69 104.916 0 0 1-100.695 106.224 107.69 104.916 0 0 1-113.96-92.635A107.69 104.916 0 0 1-674.29-705.91" fill="#e580ff"/><path d="M-654.987-693.026l-95.326 50.046-.062 82.13 95.53 53.634 94.03-53.35-1.27-82.12z" fill="#cd87de" fill-rule="evenodd" stroke="#000" stroke-width=".896"/><path d="M-744.368-525.133a107.69 104.916 0 0 1 103.832 103.32A107.69 104.916 0 0 1-741.231-315.59a107.69 104.916 0 0 1-113.96-92.635 107.69 104.916 0 0 1 89.234-115.542" fill="#dedbe3"/><path d="M-1029.762-356h-105.952l-55.953 92.857 55.953 83.333h105.952L-975-263.143zm-11.905 19.048c0 1.19 0 0 0 0z" fill="#e580ff" fill-rule="evenodd" stroke="#000"/><path d="M-441.667-642.905l-26.938-14.692-28.831 10.5 5.648-30.16-18.895-24.175 30.429-3.948 17.153-25.442 13.158 27.72 29.497 8.452-22.297 21.08z" fill="#e580ff"/><path d="M-415.476-670.286l-20.423-8.925-19.496 16.25 2.177-22.182-21.479-13.52 21.77-4.784 6.22-24.605 11.277 19.225 25.323-1.687-14.8 16.665z" fill="#e580ff"/><path d="M-1094.772-719.18a113.047 106.702 0 0 1 108.997 105.078 113.047 106.702 0 0 1-105.704 108.033 113.047 106.702 0 0 1-119.628-94.212 113.047 106.702 0 0 1 93.672-117.51" fill="#dedbe3"/><path d="M-1104.694-718.008l-76.715 26.575-30.686 77.1 30.686 82.349 76.715 26.575 92.058-35.434 30.686-70.866-36.638-79.059z" fill="#e580ff" fill-rule="evenodd" stroke="#000"/><path d="M-796.55 117.226l-46.484 28.919v38.558l46.484 38.558 46.484-38.558v-38.558z" fill="none" stroke="#000" stroke-width="1.048"/><path d="M-1011.518 253v-32l27.713-16 27.713 16v32l-27.16 15.448zm214.775 68v-32l27.712-16 27.713 16v32l-27.16 15.448z" fill="#e580ff" fill-rule="evenodd" stroke="#000"/><path d="M30.228 151.586v-50.838l47.004-25.419 47.003 25.419v50.838L77.578 177.23zm190.99-46.696V54.05l47.003-25.419 47.003 25.42v50.837l-46.656 25.646zm96.97 146.72v-50.84l47.003-25.419 47.003 25.42v50.837l-46.656 25.646zm172.067 134.882v-50.838l47.003-25.419 47.003 25.42v50.837l-46.656 25.646zm-332.469-10.936v-50.838l47.004-25.419 47.003 25.419v50.838L205.136 401.2zm732.744 63.431V388.15l47.003-25.419 47.003 25.42v50.837l-46.657 25.646zM716.275 298.271v-50.837l47.003-25.42 47.004 25.42v50.837l-46.657 25.646z" fill="#d35f8d" fill-rule="evenodd" stroke="#000" stroke-width="1.642"/><path d="M973.93-217.466a52.74 51.372 0 0 1 50.85 50.59 52.74 51.372 0 0 1-49.314 52.014 52.74 51.372 0 0 1-55.81-45.36 52.74 51.372 0 0 1 43.7-56.575" fill="#caf"/><path d="M803.038 150.265V99.427l47.003-25.42 47.003 25.42v50.838l-46.656 25.645zm294.555 177.17v-50.838l47.003-25.418 47.004 25.418v50.838l-46.657 25.646z" fill="#d35f8d" fill-rule="evenodd" stroke="#000" stroke-width="1.642"/><path d="M1052.965 73.524a16.3 14.53 0 0 1 15.717 14.308 16.3 14.53 0 0 1-15.242 14.711 16.3 14.53 0 0 1-17.25-12.829 16.3 14.53 0 0 1 13.507-16" fill="#c8beb7"/><text style="line-height:50%;-inkscape-font-specification:'sans-serif, Normal';text-align:start" x="-51.503" y="136.664" font-weight="400" font-size="13.75" font-family="sans-serif" letter-spacing="0" word-spacing="0" writing-mode="lr" fill="#f4d7e3"><tspan x="-51.503" y="136.664">C</tspan></text><text style="line-height:80.00000119%;-inkscape-font-specification:'sans-serif, Normal';text-align:start" x="-75.756" y="113.58" font-weight="400" font-size="13.75" font-family="sans-serif" letter-spacing="0" word-spacing="0" fill="#e9afc6"><tspan x="-75.756" y="113.58">ияние</tspan></text><text style="line-height:80.00000119%;-inkscape-font-specification:'sans-serif, Normal';text-align:start" x="49.203" y="121.947" font-weight="400" font-size="13.75" font-family="sans-serif" letter-spacing="0" word-spacing="0" fill="#ffd5e5"><tspan x="49.203" y="121.947">Сияние</tspan></text><text style="line-height:80.00000119%;-inkscape-font-specification:'sans-serif, Normal';text-align:start" x="57.716" y="140.634" font-weight="400" font-size="13.75" font-family="sans-serif" letter-spacing="0" word-spacing="0" fill="#ffd5e5"><tspan x="57.716" y="140.634">кожи</tspan></text><text style="line-height:120.00000477%;-inkscape-font-specification:'sans-serif, Normal';text-align:justify" x="233.327" y="-60.191" font-weight="400" font-size="13.75" font-family="sans-serif" letter-spacing="0" word-spacing="0" fill="#ffd5e5"><tspan x="233.327" y="-60.191">Активность</tspan><tspan x="233.327" y="-43.691">волокон</tspan></text><text style="line-height:125%;-inkscape-font-specification:'sans-serif, Normal';text-align:start" x="323.393" y="222.16" font-weight="400" font-size="13.75" font-family="sans-serif" letter-spacing="0" word-spacing="0" fill="#ffd5e5"><tspan x="323.393" y="222.16">Жизненная</tspan></text><text style="line-height:110.00000238%;-inkscape-font-specification:'sans-serif, Normal';text-align:start" x="334.844" y="241.58" font-weight="400" font-size="13.75" font-family="sans-serif" letter-spacing="0" word-spacing="0" fill="#ffd5e5"><tspan x="334.844" y="241.58">энергия</tspan></text><text style="line-height:125%;-inkscape-font-specification:'sans-serif, Normal';text-align:start" x="223.345" y="-64.588" font-weight="400" font-size="40" font-family="sans-serif" letter-spacing="0" word-spacing="0"><tspan x="223.345" y="-64.588">активность</tspan></text><text style="line-height:125%;-inkscape-font-specification:'sans-serif, Normal';text-align:start" x="225.693" y="71.107" font-weight="400" font-size="13.75" font-family="sans-serif" letter-spacing="0" word-spacing="0" fill="#ffd5e5"><tspan x="225.693" y="71.107">Активность</tspan></text><text style="line-height:125%;-inkscape-font-specification:'sans-serif, Normal';text-align:start" x="228.631" y="92.053" font-weight="400" font-size="13.75" font-family="sans-serif" letter-spacing="0" word-spacing="0" fill="#ffd5e5"><tspan x="228.631" y="92.053">коллагена</tspan></text><text style="line-height:120.00000477%;-inkscape-font-specification:'sans-serif, Normal';text-align:start" x="170.21" y="352.847" font-weight="400" font-size="13.75" font-family="sans-serif" letter-spacing="0" word-spacing="0" fill="#ffd5e5"><tspan x="170.21" y="352.847">Коэнзимы</tspan></text><path d="M535.862 179.272v-50.838l47.003-25.419 47.004 25.42v50.837l-46.657 25.646z" fill="#d35f8d" fill-rule="evenodd" stroke="#000" stroke-width="1.642"/><text style="line-height:120.00000477%;-inkscape-font-specification:'sans-serif, Normal';text-align:start" x="547.386" y="155.901" font-weight="400" font-size="13.75" font-family="sans-serif" letter-spacing="0" word-spacing="0" fill="#ffd5e5"><tspan x="547.386" y="155.901">Упругость</tspan></text><text style="line-height:120.00000477%;-inkscape-font-specification:'sans-serif, Normal';text-align:start" x="506.522" y="353.397" font-weight="400" font-size="13.75" font-family="sans-serif" letter-spacing="0" word-spacing="0" fill="#ffd5e5"><tspan x="506.522" y="353.397">Водный</tspan></text><text style="line-height:120.00000477%;-inkscape-font-specification:'sans-serif, Normal';text-align:start" x="508.049" y="376.267" font-weight="400" font-size="13.75" font-family="sans-serif" letter-spacing="0" word-spacing="0" fill="#ffd5e5"><tspan x="508.049" y="376.267">баланс</tspan></text><text style="line-height:120.00000477%;-inkscape-font-specification:'sans-serif, Normal';text-align:start" x="817.586" y="126.74" font-weight="400" font-size="13.75" font-family="sans-serif" letter-spacing="0" word-spacing="0" fill="#ffd5e5"><tspan x="817.586" y="126.74">Дыхание</tspan></text><text style="line-height:120.00000477%;-inkscape-font-specification:'sans-serif, Normal';text-align:start" x="726.756" y="273.977" font-weight="400" font-size="13.75" font-family="sans-serif" letter-spacing="0" word-spacing="0" fill="#ffd5e5"><tspan x="726.756" y="273.977">Свежесть</tspan></text><text style="line-height:120.00000477%;-inkscape-font-specification:'sans-serif, Normal';text-align:start" x="906.126" y="416.847" font-weight="400" font-size="13.75" font-family="sans-serif" letter-spacing="0" word-spacing="0" fill="#ffd5e5"><tspan x="906.126" y="416.847">Красота</tspan></text><text style="line-height:110.00000238%;-inkscape-font-specification:'sans-serif, Normal';text-align:center" x="1144.564" y="304.267" font-weight="400" font-size="13.75" font-family="sans-serif" letter-spacing="0" word-spacing="0" text-anchor="middle" fill="#ffd5e5"><tspan x="1144.564" y="304.267">Здоровье</tspan></text></svg>