<svg xmlns="http://www.w3.org/2000/svg" width="1225" height="458.75" viewBox="0 0 1225 458.75"><path d="M116.109-3001.689s9.924-59.543 65.497-59.543c55.574 0 67.482 58.55 64.505 76.414-2.977 17.863-28.78 53.588-63.513 53.588s-67.482-17.863-66.49-70.459zm240.156-78.398s9.924-59.543 65.498-59.543c55.573 0 67.482 58.55 64.505 76.413-2.978 17.863-28.78 53.589-63.513 53.589s-67.482-17.863-66.49-70.46zm118.094 209.393s9.924-59.543 65.497-59.543c55.574 0 67.482 58.55 64.505 76.413-2.977 17.863-28.779 53.589-63.512 53.589-34.734 0-67.482-17.863-66.49-70.46zM279.852-2677.18s9.924-59.543 65.497-59.543c55.574 0 67.482 58.551 64.505 76.414-2.977 17.863-28.779 53.589-63.512 53.589-34.734 0-67.482-17.863-66.49-70.46z" fill="purple" fill-rule="evenodd" stroke="#000"/><path d="M164.736-2934.207l-28.78 91.3-76.413 130.994 2.977 1.985 75.421-130.995 154.812 134.964.992-3.97-158.78-137.94 26.793-89.315zm76.413-77.406l117.101-43.665v4.962l-114.124 42.673zm147.865 295.73l103.208-101.223 3.97 1.985-104.2 103.208zm-240.157-334.433l-37.71-72.444 1.985-1.984z" fill="#f0f" fill-rule="evenodd" stroke="#000"/><path d="M148.857-3050.316l-37.71-72.444 1.985-1.984z" fill="#f0f" fill-rule="evenodd" stroke="#000"/><path d="M685.737-2706.951s9.923-59.543 65.497-59.543c55.573 0 67.482 58.55 64.505 76.413-2.977 17.863-28.78 53.589-63.513 53.589s-67.482-17.863-66.49-70.46zm278.859-123.056s9.924-59.543 65.497-59.543c55.574 0 67.482 58.551 64.505 76.414-2.977 17.863-28.779 53.588-63.512 53.588-34.734 0-67.482-17.862-66.49-70.459zm116.109-187.56s9.924-59.543 65.497-59.543c55.574 0 67.482 58.55 64.505 76.413-2.977 17.863-28.779 53.59-63.512 53.59-34.734 0-67.483-17.864-66.49-70.46zm286.799-77.406s9.923-59.543 65.497-59.543c55.573 0 67.482 58.55 64.505 76.414-2.978 17.862-28.78 53.588-63.513 53.588s-67.482-17.863-66.49-70.459z" fill="purple" fill-rule="evenodd" stroke="#000"/><path d="M1365.519-3079.095l-159.774 53.589 3.97 7.939 156.796-56.566zm-182.599 115.117l82.368 110.154-170.69 22.825-2.977-5.954 162.75-20.84z" fill="#f0f" fill-rule="evenodd" stroke="#000"/><path d="M1086.66-3039.4l-118.094-63.512-163.744 176.644-206.415 51.604 5.954 4.962s196.492-47.634 200.461-50.612c3.97-2.977 166.72-177.636 166.72-177.636l117.102 66.49z" fill="#0ff" fill-rule="evenodd" stroke="#000"/><text style="line-height:80.00000119%;-inkscape-font-specification:'sans-serif, Normal';text-align:start" x="128.129" y="-3265.747" transform="scale(1.09207 .9157)" font-weight="400" font-size="36.627" font-family="sans-serif" letter-spacing="0" word-spacing="0" fill="#fff"><tspan x="128.129" y="-3265.747">text</tspan></text><path d="M283.235 38.651a53.05 53.05 0 0 1 51.15 52.243 53.05 53.05 0 0 1-49.604 53.712 53.05 53.05 0 0 1-56.139-46.84A53.05 53.05 0 0 1 272.6 39.341M171.602 172.623a53.05 53.05 0 0 1 51.15 52.243 53.05 53.05 0 0 1-49.605 53.712 53.05 53.05 0 0 1-56.138-46.84 53.05 53.05 0 0 1 43.958-58.424m167.819 117.204a53.05 53.05 0 0 1 51.15 52.243 53.05 53.05 0 0 1-49.605 53.712 53.05 53.05 0 0 1-56.139-46.84 53.05 53.05 0 0 1 43.959-58.424m222.31-174.854a53.05 53.05 0 0 1 51.15 52.243 53.05 53.05 0 0 1-49.605 53.712 53.05 53.05 0 0 1-56.138-46.84 53.05 53.05 0 0 1 43.958-58.424m150.897 119.825a53.05 53.05 0 0 1 51.15 52.243 53.05 53.05 0 0 1-49.604 53.712 53.05 53.05 0 0 1-56.139-46.84 53.05 53.05 0 0 1 43.958-58.423M880.75 65.446a53.05 53.05 0 0 1 51.149 52.242 53.05 53.05 0 0 1-49.605 53.712 53.05 53.05 0 0 1-56.138-46.84 53.05 53.05 0 0 1 43.958-58.423m190.157 237.778a53.05 53.05 0 0 1 51.15 52.243 53.05 53.05 0 0 1-49.605 53.712 53.05 53.05 0 0 1-56.138-46.84 53.05 53.05 0 0 1 43.958-58.424" fill="#aa87de"/><rect width="460.863" height="16.077" x="-78.27" y="-230.431" ry="0" transform="rotate(-90)" fill="#beb7c8"/><rect width="158.087" height="18.756" x="-220.28" y="259.905" ry="9.378" transform="matrix(0 -1 -1 0 0 0)" fill="#beb7c8"/><path d="M206.316 182.768l42.871-48.23z" fill="#beb7c8" fill-rule="evenodd" stroke="#000"/><path d="M292.058 142.577l29.474 152.728zm37.512-42.871l160.766 50.91zm259.905 69.665l235.79-37.512z" fill="none" stroke="#000"/><path d="M651.134 247.109l-64.399-57.268z" fill="none" stroke="#000" stroke-width=".907"/><path d="M734.165 303.343l267.943 42.87zm187.56-214.355l56.268-58.947zM136.651 265.83L53.59 284.588z" fill="none" stroke="#000"/><path d="M375.12 336.399l254.547-45.55z" fill="#aa87de" fill-rule="evenodd" stroke="#000"/><path d="M305.455 394.444l-26.794 50.909zm795.792-5.359l53.589 48.23z" fill="none" stroke="#000"/><text style="line-height:125%;-inkscape-font-specification:'sans-serif, Normal';text-align:start" x="131.471" y="238.447" font-weight="400" font-size="40" font-family="sans-serif" letter-spacing="0" word-spacing="0" fill="#e5d5ff"><tspan x="131.471" y="238.447">text</tspan></text><text y="103.423" x="239.846" style="line-height:125%;-inkscape-font-specification:'sans-serif, Normal';text-align:start" font-weight="400" font-size="40" font-family="sans-serif" letter-spacing="0" word-spacing="0" fill="#e5d5ff"><tspan y="103.423" x="239.846">text</tspan></text><text style="line-height:125%;-inkscape-font-specification:'sans-serif, Normal';text-align:start" x="286.038" y="357.482" font-weight="400" font-size="40" font-family="sans-serif" letter-spacing="0" word-spacing="0" fill="#e5d5ff"><tspan x="286.038" y="357.482">text</tspan></text><text y="181.595" x="501.011" style="line-height:125%;-inkscape-font-specification:'sans-serif, Normal';text-align:start" font-weight="400" font-size="40" font-family="sans-serif" letter-spacing="0" word-spacing="0" fill="#e5d5ff"><tspan y="181.595" x="501.011">text</tspan></text><text style="line-height:125%;-inkscape-font-specification:'sans-serif, Normal';text-align:start" x="641.365" y="300.63" font-weight="400" font-size="40" font-family="sans-serif" letter-spacing="0" word-spacing="0" fill="#e5d5ff"><tspan x="641.365" y="300.63">text</tspan></text><text y="126.519" x="838.571" style="line-height:125%;-inkscape-font-specification:'sans-serif, Normal';text-align:start" font-weight="400" font-size="40" font-family="sans-serif" letter-spacing="0" word-spacing="0" fill="#e5d5ff"><tspan y="126.519" x="838.571">text</tspan></text><text style="line-height:125%;-inkscape-font-specification:'sans-serif, Normal';text-align:start" x="1018.011" y="371.695" font-weight="400" font-size="40" font-family="sans-serif" letter-spacing="0" word-spacing="0" fill="#e5d5ff"><tspan x="1018.011" y="371.695">text</tspan></text></svg>