<svg xmlns="http://www.w3.org/2000/svg" width="1210" height="469" viewBox="0 0 1210 469"><path d="M79.281 79.986a52.74 51.372 0 0 1 50.85 50.591 52.74 51.372 0 0 1-49.314 52.013 52.74 51.372 0 0 1-55.81-45.359 52.74 51.372 0 0 1 43.701-56.575m140.71 255.494a52.74 51.372 0 0 1 50.85 50.591 52.74 51.372 0 0 1-49.314 52.014 52.74 51.372 0 0 1-55.81-45.36 52.74 51.372 0 0 1 43.701-56.575m163.998-151.354a52.74 51.372 0 0 1 50.85 50.59 52.74 51.372 0 0 1-49.314 52.014 52.74 51.372 0 0 1-55.81-45.36 52.74 51.372 0 0 1 43.7-56.575m181.807 130.838a52.74 51.372 0 0 1 50.85 50.59 52.74 51.372 0 0 1-49.314 52.014 52.74 51.372 0 0 1-55.81-45.36 52.74 51.372 0 0 1 43.7-56.575m414.683 47.276a52.74 51.372 0 0 1 50.85 50.59 52.74 51.372 0 0 1-49.314 52.014 52.74 51.372 0 0 1-55.81-45.36 52.74 51.372 0 0 1 43.701-56.575M755.993 218.343a52.74 51.372 0 0 1 50.85 50.59 52.74 51.372 0 0 1-49.313 52.014 52.74 51.372 0 0 1-55.81-45.36 52.74 51.372 0 0 1 43.7-56.575M853.354 67.658a52.74 51.372 0 0 1 50.85 50.59 52.74 51.372 0 0 1-49.313 52.014 52.74 51.372 0 0 1-55.81-45.36 52.74 51.372 0 0 1 43.7-56.575m236.5-63.683a52.74 51.372 0 0 1 50.85 50.59 52.74 51.372 0 0 1-49.314 52.014 52.74 51.372 0 0 1-55.81-45.36 52.74 51.372 0 0 1 43.701-56.575m81.806 256.865a52.74 51.372 0 0 1 50.85 50.59 52.74 51.372 0 0 1-49.314 52.014 52.74 51.372 0 0 1-55.81-45.359 52.74 51.372 0 0 1 43.701-56.576M568.298 112.863a32.877 31.503 0 0 1 31.699 31.024 32.877 31.503 0 0 1-30.742 31.896 32.877 31.503 0 0 1-34.79-27.816 32.877 31.503 0 0 1 27.242-34.693M271.062 15.603a52.74 51.372 0 0 1 50.85 50.59 52.74 51.372 0 0 1-49.314 52.014 52.74 51.372 0 0 1-55.81-45.36 52.74 51.372 0 0 1 43.701-56.575" fill="#caf"/><text style="line-height:100%;-inkscape-font-specification:'sans-serif, Normal';text-align:center" x="276.692" y="62.675" transform="scale(.97415 1.02653)" font-weight="400" font-size="17.5" font-family="sans-serif" letter-spacing="0" word-spacing="0" text-anchor="middle" fill="#fff6d5"><tspan x="276.692" y="62.675">Anothe</tspan><tspan x="276.692" y="80.175">feature</tspan></text><text style="line-height:100%;-inkscape-font-specification:'sans-serif, Normal';text-align:center" x="360.153" y="233.585" font-weight="400" font-size="17.5" font-family="sans-serif" letter-spacing="0" word-spacing="0" text-anchor="middle" fill="#fff6d5"><tspan x="360.153" y="233.585">No</tspan><tspan x="360.153" y="251.085">contracts</tspan></text><text style="line-height:100%;-inkscape-font-specification:'sans-serif, Normal';text-align:center" x="207.695" y="377.421" font-weight="400" font-size="17.5" font-family="sans-serif" letter-spacing="0" word-spacing="0" text-anchor="middle" fill="#fff6d5"><tspan x="207.695" y="377.421">Like</tspan><tspan x="207.695" y="394.921">minded</tspan><tspan x="207.695" y="412.421">people</tspan></text><text style="line-height:100%;-inkscape-font-specification:'sans-serif, Normal';text-align:center" x="76.39" y="119.483" font-weight="400" font-size="17.5" font-family="sans-serif" letter-spacing="0" word-spacing="0" text-anchor="middle" fill="#fff6d5"><tspan x="76.39" y="119.483">Coffe</tspan><tspan x="76.39" y="136.983">shop on</tspan><tspan x="76.39" y="154.483">site</tspan></text><text style="line-height:100%;-inkscape-font-specification:'sans-serif, Normal';text-align:center" x="753.203" y="269.302" font-weight="400" font-size="17.5" font-family="sans-serif" letter-spacing="0" word-spacing="0" text-anchor="middle" fill="#fff6d5"><tspan x="753.203" y="269.302">Inspiring</tspan><tspan x="753.203" y="286.802">spaces</tspan></text><text style="line-height:100%;-inkscape-font-specification:'sans-serif, Normal';text-align:center" x="850.765" y="107.155" font-weight="400" font-size="17.5" font-family="sans-serif" letter-spacing="0" word-spacing="0" text-anchor="middle" fill="#fff6d5"><tspan x="850.765" y="107.155">Business</tspan><tspan x="850.765" y="124.655">Mentors</tspan><tspan x="850.765" y="142.155">On-site</tspan></text><text style="line-height:100%;-inkscape-font-specification:'sans-serif, Normal';text-align:start" x="905.681" y="413.037" font-weight="400" font-size="17.5" font-family="sans-serif" letter-spacing="0" word-spacing="0" fill="#fff6d5"><tspan x="905.681" y="413.037">Anothe</tspan><tspan x="905.681" y="430.537">feature</tspan></text><text y="308.726" x="1116.237" style="line-height:100%;-inkscape-font-specification:'sans-serif, Normal';text-align:start" font-weight="400" font-size="17.5" font-family="sans-serif" letter-spacing="0" word-spacing="0" fill="#fff6d5"><tspan y="308.726" x="1116.237">Anothe</tspan><tspan y="326.226" x="1116.237">feature</tspan></text><text style="line-height:100%;-inkscape-font-specification:'sans-serif, Normal';text-align:center" x="1078.828" y="53.931" font-weight="400" font-size="17.5" font-family="sans-serif" letter-spacing="0" word-spacing="0" text-anchor="middle" fill="#fff6d5"><tspan x="1078.828" y="53.931">Anothe</tspan><tspan x="1078.828" y="71.431">feature</tspan></text><path d="M42.3 242.553a14.53 15.498 0 0 1 14.009 15.262 14.53 15.498 0 0 1-13.586 15.692 14.53 15.498 0 0 1-15.375-13.684 14.53 15.498 0 0 1 12.039-17.068M708.606 49.968a10.821 10.82 0 0 1 10.433 10.656 10.821 10.82 0 0 1-10.118 10.955 10.821 10.82 0 0 1-11.451-9.554 10.821 10.82 0 0 1 8.966-11.916m239.352 179.028a16.3 14.53 0 0 1 15.716 14.309 16.3 14.53 0 0 1-15.242 14.71 16.3 14.53 0 0 1-17.25-12.828 16.3 14.53 0 0 1 13.508-16.002" fill="#c8beb7"/><path d="M128.767 114.205l89.041-34.246-93.15 27.397zM42.466 170.37l-1.37 73.972 6.85-68.493z" fill="#c8beb7" fill-rule="evenodd" stroke="#000"/><path d="M157.534 369l-106.85-97.26 108.22 91.78z" fill="#ac9d93" fill-rule="evenodd" stroke="#000"/><path d="M239.744 346.87l87.642-73.752-80.686 79.426z" fill="#ac9d93" fill-rule="evenodd" stroke="#000" stroke-width="1.025"/><path d="M298.63 110.096l41.096 78.082-35.616-84.931z" fill="#ac9d93" fill-rule="evenodd" stroke="#000"/><path d="M410.367 216.108l124.607-64.506-127.289 58.72z" fill="#ac9d93" fill-rule="evenodd" stroke="#000" stroke-width="1.105"/><path d="M398.638 272.1l91.757 64.019-86.36-69.838z" fill="#ac9d93" fill-rule="evenodd" stroke="#000" stroke-width="1.023"/><path d="M797.87 132.662l-195.155 7.886 193.266-13.714z" fill="#ac9d93" fill-rule="evenodd" stroke="#000"/><path d="M799.921 103.194L719.206 64.92l83.499 30.62z" fill="#ac9d93" fill-rule="evenodd" stroke="#000" stroke-width="1.066"/><path d="M897.26 96.397L1026.027 69 901.37 103.247zm-20.548 67.123l57.535 67.124-50.685-71.233zM808.22 267.63l119.177-19.178-120.548 12.329zm-27.398 46.575l109.589 73.973-105.48-78.082zm104.11 120.548l-79.453 19.179 83.562-13.7zm210.958-130.137l-138.356-54.794 139.726 46.575z" fill="#ac9d93" fill-rule="evenodd" stroke="#000"/><text style="line-height:80.00000119%;-inkscape-font-specification:'sans-serif, Normal';text-align:start" x="506.749" y="362.755" font-weight="400" font-size="17.5" font-family="sans-serif" letter-spacing="0" word-spacing="0" fill="#fff6d5"><tspan x="506.749" y="362.755">Open</tspan></text><text style="line-height:80.00000119%;-inkscape-font-specification:'sans-serif, Normal';text-align:start" x="512.228" y="387.413" font-weight="400" font-size="17.5" font-family="sans-serif" letter-spacing="0" word-spacing="0" fill="#fff6d5"><tspan x="512.228" y="387.413">24/7</tspan></text></svg>